<svg width="39" height="48" viewBox="0 0 39 48" fill="none" xmlns="http://www.w3.org/2000/svg">
<path d="M37.3656 0H0.748007C0.336313 0 0 0.336313 0 0.748007V47.252C0 47.6637 0.336313 48 0.748007 48H37.3598C37.7714 48 38.1078 47.6637 38.1078 47.252V0.748007C38.1136 0.336313 37.7772 0 37.3656 0ZM36.6117 46.504H1.50181V1.49601H36.6175V46.504H36.6117ZM5.52597 13.0408V6.04784C5.52597 5.63614 5.86229 5.29983 6.27398 5.29983H13.2728C13.6845 5.29983 14.0208 5.63614 14.0208 6.04784C14.0208 6.45953 13.6845 6.79584 13.2728 6.79584H7.02779V12.2928H12.5248V10.5533C12.5248 10.1416 12.8611 9.80527 13.2728 9.80527C13.6845 9.80527 14.0208 10.1416 14.0208 10.5533V13.0408C14.0208 13.4525 13.6845 13.7888 13.2728 13.7888H6.27978C5.86229 13.7946 5.52597 13.4583 5.52597 13.0408ZM10.13 9.45736L14.9891 6.55811C15.3428 6.34356 15.8067 6.45953 16.0155 6.81904C16.23 7.17275 16.114 7.63663 15.7545 7.84537L9.77628 11.4172C9.66031 11.4868 9.52694 11.5216 9.39357 11.5216C9.26601 11.5216 9.13844 11.4868 9.02827 11.423C8.79633 11.2897 8.64557 11.0461 8.64557 10.7736L8.62237 8.02513C8.61658 7.61343 8.95289 7.27132 9.36458 7.27132H9.37038C9.78207 7.27132 10.1184 7.60184 10.1184 8.01353L10.13 9.45736ZM18.503 7.53805C18.503 7.12636 18.8393 6.79005 19.251 6.79005H31.8396C32.2513 6.79005 32.5876 7.12636 32.5876 7.53805C32.5876 7.94975 32.2513 8.28606 31.8396 8.28606H19.251C18.8393 8.29186 18.503 7.95554 18.503 7.53805ZM18.503 11.5506C18.503 11.1389 18.8393 10.8026 19.251 10.8026H31.8396C32.2513 10.8026 32.5876 11.1389 32.5876 11.5506C32.5876 11.9623 32.2513 12.2986 31.8396 12.2986H19.251C18.8393 12.2986 18.503 11.9623 18.503 11.5506ZM5.52597 27.4965V20.5035C5.52597 20.0918 5.86229 19.7555 6.27398 19.7555H13.2728C13.6845 19.7555 14.0208 20.0918 14.0208 20.5035C14.0208 20.9152 13.6845 21.2515 13.2728 21.2515H7.02779V26.7485H12.5248V25.0089C12.5248 24.5972 12.8611 24.2609 13.2728 24.2609C13.6845 24.2609 14.0208 24.5972 14.0208 25.0089V27.5023C14.0208 27.914 13.6845 28.2503 13.2728 28.2503H6.27978C5.86229 28.2503 5.52597 27.914 5.52597 27.4965ZM16.0155 21.2747C16.23 21.6284 16.114 22.0923 15.7545 22.301L9.77628 25.8729C9.66031 25.9425 9.52694 25.9773 9.39357 25.9773C9.26601 25.9773 9.13844 25.9425 9.02827 25.8787C8.79633 25.7453 8.64557 25.5018 8.64557 25.2293L8.62237 22.4808C8.61658 22.0691 8.95289 21.727 9.36458 21.727H9.37038C9.78207 21.727 10.1184 22.0575 10.1184 22.4692L10.13 23.9072L14.9891 21.008C15.3428 20.7992 15.8067 20.9152 16.0155 21.2747ZM18.503 21.9937C18.503 21.582 18.8393 21.2457 19.251 21.2457H31.8396C32.2513 21.2457 32.5876 21.582 32.5876 21.9937C32.5876 22.4054 32.2513 22.7417 31.8396 22.7417H19.251C18.8393 22.7475 18.503 22.4112 18.503 21.9937ZM18.503 26.0063C18.503 25.5946 18.8393 25.2583 19.251 25.2583H31.8396C32.2513 25.2583 32.5876 25.5946 32.5876 26.0063C32.5876 26.418 32.2513 26.7543 31.8396 26.7543H19.251C18.8393 26.7543 18.503 26.418 18.503 26.0063ZM5.52597 41.9522V34.9592C5.52597 34.5475 5.86229 34.2112 6.27398 34.2112H13.2728C13.6845 34.2112 14.0208 34.5475 14.0208 34.9592C14.0208 35.3709 13.6845 35.7072 13.2728 35.7072H7.02779V41.2042H12.5248V39.4646C12.5248 39.0529 12.8611 38.7166 13.2728 38.7166C13.6845 38.7166 14.0208 39.0529 14.0208 39.4646V41.9522C14.0208 42.3639 13.6845 42.7002 13.2728 42.7002H6.27978C5.86229 42.7002 5.52597 42.3639 5.52597 41.9522ZM16.0155 35.7304C16.23 36.0841 16.114 36.548 15.7545 36.7567L9.77628 40.3286C9.66031 40.3982 9.52694 40.433 9.39357 40.433C9.26601 40.433 9.13844 40.3982 9.02827 40.3344C8.79633 40.201 8.64557 39.9575 8.64557 39.6849L8.62237 36.9365C8.61658 36.5248 8.95289 36.1827 9.36458 36.1827H9.37038C9.78207 36.1827 10.1184 36.5132 10.1184 36.9249L10.13 38.3629L14.9891 35.4636C15.3428 35.2549 15.8009 35.3709 16.0155 35.7304ZM18.503 36.4494C18.503 36.0377 18.8393 35.7014 19.251 35.7014H31.8396C32.2513 35.7014 32.5876 36.0377 32.5876 36.4494C32.5876 36.8611 32.2513 37.1974 31.8396 37.1974H19.251C18.8393 37.1974 18.503 36.8669 18.503 36.4494ZM18.503 40.4619C18.503 40.0503 18.8393 39.7139 19.251 39.7139H31.8396C32.2513 39.7139 32.5876 40.0503 32.5876 40.4619C32.5876 40.8736 32.2513 41.21 31.8396 41.21H19.251C18.8393 41.21 18.503 40.8736 18.503 40.4619Z" fill="black"/>
</svg>
