<svg width="55" height="56" viewBox="0 0 55 56" fill="none" xmlns="http://www.w3.org/2000/svg">
<path d="M20.8621 1.89655L2.52874 11.6954L7.9023 17.8592L26.2356 8.21839L20.8621 1.89655ZM48.046 19.1236L54.6839 26.8678L48.204 30.3448V44.727L27.5 55.4741L6.95402 44.569V30.3448L0.316092 26.8678L6.95402 19.1236L0 11.2213L21.1782 0L27.5 7.27011L33.8218 0L55 11.2213L48.046 19.1236ZM46.6236 31.1351L33.9799 37.773L28.2902 31.2931V53.2615L46.6236 43.6207V31.1351ZM27.5 28.2902L45.6753 18.8075L28.2902 9.6408V15.6466V17.227V24.3391H27.5H26.7098V17.227V15.6466V9.6408L9.48276 18.8075L27.5 28.2902ZM34.296 35.8764L52.3132 26.3937L46.7816 20.0718L28.7644 29.5546L34.296 35.8764ZM52.6293 11.6954L34.1379 1.89655L28.7644 8.21839L47.0977 17.8592L52.6293 11.6954ZM2.84483 26.3937L20.704 35.8764L26.2356 29.5546L8.37644 20.0718L2.84483 26.3937ZM26.7098 31.2931L21.1782 37.773L8.53448 31.1351V43.6207L26.7098 53.2615V31.2931Z" fill="black"/>
</svg>
