<svg width="38" height="39" viewBox="0 0 38 39" fill="none" xmlns="http://www.w3.org/2000/svg">
<path d="M34.538 8.27617C30.9791 3.09361 25.1716 0 19 0C12.8284 0 7.02107 3.09375 3.46197 8.27617C1.19658 11.5687 0 15.4498 0 19.5C0 23.5519 1.19663 27.4311 3.46197 30.7239C3.46562 30.7295 3.4711 30.7351 3.47476 30.7408C3.47658 30.7426 3.47658 30.7445 3.47841 30.7464C7.03906 35.916 12.8378 39 19 39C25.1712 39 30.9789 35.9062 34.538 30.7238C36.8034 27.4313 38 23.5502 38 19.5C38 15.4481 36.8033 11.569 34.538 8.27617ZM36.564 18.7704H28.48C28.4307 15.9392 28.1037 13.2802 27.5501 10.9027C29.8337 10.5784 31.9127 10.1246 33.6684 9.55835C35.4423 12.3053 36.438 15.4648 36.5659 18.77L36.564 18.7704ZM32.7841 8.30977C31.1527 8.80101 29.2545 9.19854 27.1812 9.48352C26.2586 6.25662 24.8958 3.65583 23.2498 1.99839C26.9876 2.95652 30.3544 5.1615 32.7845 8.30944L32.7841 8.30977ZM10.9454 18.7704C10.9966 16.0235 11.3382 13.4117 11.9028 11.0866C14.1462 11.3416 16.5468 11.4785 19.0023 11.4785C21.4578 11.4785 23.8583 11.3416 26.1018 11.0866C26.6663 13.4097 27.0079 16.0215 27.0591 18.7704H10.9454ZM27.0568 20.2311C27.0057 22.978 26.664 25.5898 26.0995 27.9149C23.8561 27.6599 21.4555 27.523 19 27.523C16.5445 27.523 14.144 27.6599 11.9005 27.9149C11.336 25.5918 10.9944 22.98 10.9432 20.2311H27.0568ZM19 1.46064C21.7641 1.46064 24.254 4.76439 25.7136 9.66385C23.5907 9.89636 21.3236 10.0201 19 10.0201C16.6763 10.0201 14.409 9.89636 12.2863 9.66385C13.746 4.76449 16.2361 1.46064 19 1.46064ZM14.7524 1.99877C13.1064 3.65439 11.7435 6.25691 10.8209 9.4839C8.74558 9.19703 6.84742 8.80139 5.21617 8.31016C7.64595 5.16202 11.0132 2.95911 14.7509 1.99911L14.7524 1.99877ZM4.33374 9.55878C6.08939 10.125 8.1684 10.5788 10.452 10.9032C9.89665 13.2807 9.56964 15.9393 9.52213 18.7709H1.43814C1.56603 15.4671 2.5598 12.3053 4.33374 9.55878ZM1.43809 20.2292H9.52208C9.57141 23.0604 9.89843 25.7194 10.452 28.0969C8.16836 28.4213 6.08934 28.875 4.33369 29.4413C2.55975 26.6944 1.56414 23.5345 1.43809 20.2292ZM5.21795 30.6899C6.84938 30.1986 8.74754 29.8011 10.8209 29.5161C11.7435 32.743 13.1063 35.3457 14.7523 37.0012C11.0145 36.0431 7.64768 33.8381 5.21757 30.6902L5.21795 30.6899ZM19.0002 37.5395C16.2361 37.5395 13.7462 34.2357 12.2866 29.3363C14.4095 29.1038 16.6766 28.98 19.0002 28.98C21.3239 28.98 23.5913 29.1038 25.7139 29.3363C24.2542 34.2356 21.7623 37.5395 19.0002 37.5395ZM23.2478 37.0013C24.8938 35.3457 26.2567 32.7432 27.1793 29.5162C29.2546 29.8031 31.1528 30.1987 32.784 30.69C30.3543 33.8381 26.987 36.041 23.2493 37.001L23.2478 37.0013ZM33.6665 29.4413C31.9108 28.8751 29.8318 28.4213 27.5482 28.0969C28.1036 25.7194 28.4306 23.0608 28.4781 20.2292H36.5621C36.4342 23.533 35.4404 26.6948 33.6665 29.4413Z" fill="black"/>
</svg>
