<svg width="27" height="43" viewBox="0 0 27 43" fill="none" xmlns="http://www.w3.org/2000/svg">
<path d="M22.9598 0H4.03977C2.18361 0 0.673828 1.50978 0.673828 3.36594V39.6341C0.673828 41.4896 2.18361 43 4.03977 43H22.9598C24.8153 43 26.3257 41.4902 26.3257 39.6341V3.36594C26.3257 1.50978 24.8153 0 22.9598 0ZM25.1313 39.6341C25.1313 40.8315 24.1572 41.8056 22.9598 41.8056H4.03977C2.84234 41.8056 1.86827 40.8315 1.86827 39.6341V3.36594C1.86827 2.16851 2.84234 1.19444 4.03977 1.19444H22.9598C24.1572 1.19444 25.1313 2.16851 25.1313 3.36594V39.6341Z" fill="black"/>
<path d="M15.5771 3.34766H11.4234C11.0937 3.34766 10.8262 3.61521 10.8262 3.94488C10.8262 4.27455 11.0937 4.5421 11.4234 4.5421H15.5771C15.9073 4.5421 16.1743 4.27455 16.1743 3.94488C16.1743 3.61521 15.9067 3.34766 15.5771 3.34766Z" fill="black"/>
<path d="M13.4994 39.3797C14.3389 39.3797 15.0194 38.6992 15.0194 37.8598C15.0194 37.0203 14.3389 36.3398 13.4994 36.3398C12.66 36.3398 11.9795 37.0203 11.9795 37.8598C11.9795 38.6992 12.66 39.3797 13.4994 39.3797Z" fill="black"/>
</svg>
