<svg width="48" height="40" viewBox="0 0 48 40" fill="none" xmlns="http://www.w3.org/2000/svg">
<path d="M40.0542 6.63913L34.9333 4.4972L24 0L0 9.90642V30.0936L24 40L48 30.0936V9.90642L40.0542 6.63913ZM45.3875 10.3875L23.9998 19.223L16.7998 16.2778L38.1875 7.44235L45.3875 10.3875ZM11.7331 14.1903L33.1209 5.35482L34.0813 5.78363L36.2667 6.63917L14.879 15.4746L11.7331 14.1903ZM14.1873 16.7589V22.7558L10.6144 21.256L10.5602 15.2045L14.1873 16.7589ZM31.1996 4.55155L9.81184 13.387L2.61184 10.3874L23.9996 1.55199L31.1996 4.55155ZM1.43904 11.4582L9.12011 14.6711L9.17427 22.2744L15.6287 24.9518L15.6266 17.3485L23.3055 20.507V38.1779L1.43886 29.1293L1.43904 11.4582ZM24.6934 38.1777V20.5068L46.5601 11.4582V29.1291L24.6934 38.1777Z" fill="black"/>
</svg>
