<svg width="45" height="49" viewBox="0 0 45 49" fill="none" xmlns="http://www.w3.org/2000/svg">
<path fill-rule="evenodd" clip-rule="evenodd" d="M11.4578 33.05H6.33208V38.2646H11.4578V35.4361L9.70603 37.1736C9.48236 37.4224 9.10399 37.4565 8.8385 37.2459L6.80869 35.6211C6.53066 35.3999 6.48258 34.9895 6.70208 34.7066C6.91948 34.4238 7.32295 34.3749 7.60096 34.5982L9.1918 35.8699L11.4599 33.6199V33.0499L11.4578 33.05ZM5.6905 31.7463H12.0978C12.4365 31.7463 12.7124 32.0122 12.7375 32.3503L12.8462 32.2419C13.0991 31.9909 13.5047 31.9973 13.7493 32.2546C13.9959 32.512 13.9897 32.9246 13.7367 33.1734L12.7375 34.1644V38.9154C12.7375 39.2748 12.4511 39.5683 12.0957 39.5683H5.6884C5.33512 39.5683 5.04666 39.2769 5.04666 38.9154V32.3969C5.04666 32.0375 5.33304 31.7441 5.6884 31.7441L5.6905 31.7463ZM11.4578 22.9059H6.33208V28.1205H11.4578V25.292L9.70603 27.0295C9.48236 27.2783 9.10399 27.3124 8.8385 27.1018L6.80869 25.477C6.53066 25.2558 6.48258 24.8454 6.70208 24.5625C6.91948 24.2797 7.32295 24.2308 7.60096 24.4541L9.1918 25.7258L11.4599 23.4758V22.9058L11.4578 22.9059ZM5.6905 21.6023H12.0978C12.4365 21.6023 12.7124 21.8681 12.7375 22.2062L12.8462 22.0978C13.0991 21.8468 13.5047 21.8532 13.7493 22.1105C13.9959 22.3679 13.9897 22.7805 13.7367 23.0293L12.7375 24.0203V28.7713C12.7375 29.1307 12.4511 29.4242 12.0957 29.4242H5.6884C5.33512 29.4242 5.04666 29.1328 5.04666 28.7713V22.2529C5.04666 21.8934 5.33304 21.6 5.6884 21.6L5.6905 21.6023ZM15.7807 24.3967C15.4274 24.3967 15.139 24.1053 15.139 23.7438C15.139 23.3844 15.4254 23.0909 15.7807 23.0909H29.6694C30.0227 23.0909 30.3112 23.3823 30.3112 23.7438C30.3112 24.1032 30.0248 24.3967 29.6694 24.3967H15.7807ZM15.7807 27.9334C15.4274 27.9334 15.139 27.642 15.139 27.2805C15.139 26.9211 15.4254 26.6276 15.7807 26.6276H29.6694C30.0227 26.6276 30.3112 26.919 30.3112 27.2805C30.3112 27.6399 30.0248 27.9334 29.6694 27.9334H15.7807ZM11.4577 12.7639H6.33203V17.9785H11.4577V15.15L9.70598 16.8875C9.4823 17.1364 9.10394 17.1704 8.83845 16.9598L6.80863 15.3351C6.53061 15.1139 6.48253 14.7034 6.70202 14.4206C6.91943 14.1377 7.3229 14.0888 7.60091 14.3121L9.19174 15.5838L11.4599 13.3338V12.7639L11.4577 12.7639ZM5.69044 11.4582H12.0978C12.4364 11.4582 12.7123 11.724 12.7374 12.0621L12.8461 11.9537C13.0991 11.7027 13.5046 11.7091 13.7492 11.9664C13.9959 12.2238 13.9896 12.6364 13.7367 12.8852L12.7374 13.8762V18.6272C12.7374 18.9866 12.451 19.2801 12.0957 19.2801H5.68835C5.33507 19.2801 5.0466 18.9887 5.0466 18.6272V12.1088C5.0466 11.7494 5.33299 11.4559 5.68835 11.4559L5.69044 11.4582ZM15.7807 14.2547C15.4274 14.2547 15.1389 13.9634 15.1389 13.6019C15.1389 13.2424 15.4253 12.949 15.7807 12.949H29.6694C30.0226 12.949 30.3111 13.2403 30.3111 13.6019C30.3111 13.9613 30.0247 14.2547 29.6694 14.2547H15.7807ZM42.7302 5.23788L43.4556 4.35743L42.6779 3.69388L41.9526 4.57433L42.7302 5.23788ZM29.7844 18.2851L29.3162 20.7308L31.601 19.8334L29.7865 18.2873L29.7844 18.2851ZM42.6028 7.1668L37.6423 13.1915L35.1463 11.0648L40.2699 4.83979L42.398 6.65171L42.7659 6.96433L42.6028 7.16211L42.5986 7.16637L42.6028 7.1668ZM33.9842 17.6362C33.9989 17.617 34.0156 17.5958 34.0323 17.5788L36.8209 14.1909L34.3249 12.0643L30.2883 16.9684C30.2946 16.9875 30.2988 17.0088 30.3009 17.028L32.7613 19.1228L33.9842 17.6362ZM2.0006 6.24998H4.58852C4.76411 6.24998 4.92299 6.17767 5.03796 6.05858C5.15502 5.93948 5.22609 5.77786 5.22609 5.60134V2.27308L2.0006 6.24998ZM30.8338 31.3128L30.2924 33.6692L31.5864 33.9775L32.1278 31.6212L30.8317 31.3128H30.8338ZM24.4495 40.1897L25.0411 37.6101C25.0474 37.5888 25.0537 37.5633 25.0578 37.5399L25.8522 34.0734C25.8585 34.0521 25.8648 34.0287 25.8669 34.0053L26.7093 30.3368L29.5878 31.0195L28.9711 33.7076C28.9649 33.731 28.9586 33.7544 28.9544 33.7778L28.9001 34.0096C28.8206 34.3605 29.0339 34.7093 29.3788 34.7922L31.9207 35.3962C32.2656 35.477 32.6085 35.2601 32.69 34.9092L33.3756 31.9191L34.3184 32.1424C34.3414 32.1488 34.3644 32.1551 34.3874 32.1594L36.2792 32.6081L34.0195 42.4634L24.4494 40.1921L24.4495 40.1897ZM21.9097 43.5733H1.92081C1.74521 43.5733 1.58634 43.501 1.47137 43.3819C1.3543 43.2628 1.28323 43.1012 1.28323 42.9246V7.55574H4.5882C5.11707 7.55574 5.59786 7.33669 5.9449 6.98153C6.29192 6.6285 6.50933 6.13935 6.50933 5.60129V1.30328H33.2207C33.3942 1.30328 33.5552 1.37772 33.6701 1.49468C33.7872 1.61378 33.8583 1.7754 33.8583 1.95192V10.6013L29.0148 16.486H15.7805C15.4273 16.486 15.1388 16.7774 15.1388 17.1389C15.1388 17.4983 15.4252 17.7918 15.7805 17.7918H28.5738L27.8359 21.6389C27.769 21.992 27.9968 22.3322 28.3439 22.4003C28.4797 22.4258 28.6114 22.4088 28.7285 22.3535L33.0369 20.6585C33.1477 20.6224 33.2501 20.5543 33.3316 20.4565L33.8584 19.8163V30.6924L26.9266 29.0464C26.8994 29.0379 26.8702 29.0315 26.843 29.0273C26.5462 28.9698 26.2514 29.0358 26.011 29.1868C25.7706 29.3378 25.5846 29.5781 25.503 29.8737C25.4947 29.9013 25.4863 29.9311 25.4821 29.9609L24.7317 33.2359H15.7824C15.4291 33.2359 15.1407 33.5273 15.1407 33.8888C15.1407 34.2482 15.4271 34.5417 15.7824 34.5417H24.4304L23.9183 36.7747H15.7824C15.4291 36.7747 15.1407 37.0661 15.1407 37.4276C15.1407 37.787 15.427 38.0805 15.7824 38.0805H23.6196L23.2037 39.8967L21.4769 39.4862C21.132 39.4054 20.7892 39.6223 20.7077 39.9732L20.1307 42.4848C20.0513 42.8357 20.2645 43.1845 20.6094 43.2675L21.9118 43.5758L21.9097 43.5733ZM37.521 45.6276C37.3412 45.3341 37.0506 45.1087 36.6932 45.0236C36.3357 44.9386 35.9783 45.0088 35.6877 45.1916C35.3992 45.3745 35.1776 45.6701 35.094 46.0338C35.0104 46.3975 35.0794 46.7611 35.2591 47.0568C35.4389 47.3502 35.7295 47.5757 36.087 47.6607C36.4444 47.7458 36.8019 47.6756 37.0924 47.4927C37.3809 47.3098 37.6025 47.0142 37.6861 46.6506C37.7698 46.2869 37.7008 45.9233 37.521 45.6276ZM34.0718 45.1236C34.2913 44.6919 34.6195 44.3367 35.0125 44.0879C35.4055 43.8391 35.8654 43.6966 36.342 43.6881L39.9689 27.8762C40.019 27.6253 40.2114 27.4169 40.4747 27.3658L42.9456 26.8746C43.115 26.8405 43.255 26.7406 43.3449 26.6066C43.4306 26.4769 43.4703 26.3152 43.4452 26.1494C43.4411 26.1345 43.439 26.1196 43.4369 26.1047C43.3993 25.941 43.3031 25.807 43.1777 25.7198C43.0502 25.6326 42.8913 25.5922 42.7282 25.6177C42.7115 25.622 42.6948 25.6241 42.676 25.6283L39.0303 26.3535L37.6736 32.2698V32.272L35.1212 43.3947C35.0417 43.7456 34.6968 43.9625 34.3519 43.8817L23.536 41.3126H23.5339L21.8072 40.9022L21.5229 42.1463L27.5872 43.586C27.6102 43.5903 27.6332 43.5967 27.6562 43.6031L34.0737 45.1258L34.0718 45.1236ZM37.59 43.9837C38.0143 44.207 38.3634 44.5408 38.608 44.9407C38.9613 45.5191 39.0971 46.2316 38.9341 46.9461C38.771 47.6607 38.3383 48.2392 37.7697 48.5986C37.2032 48.958 36.5008 49.0962 35.7984 48.9304C35.0961 48.7645 34.5275 48.3242 34.1742 47.7458C33.9296 47.346 33.7895 46.8781 33.7812 46.3932L27.4054 44.879L1.92113 44.8769C1.39225 44.8769 0.911464 44.6579 0.564421 44.3027C0.217409 43.9497 0 43.4605 0 42.9225L0.00209068 6.90296V6.88595V6.88382V6.86894L0.0041811 6.85405C0.00627139 6.84341 0.0062714 6.83278 0.00836169 6.82215V6.82002C0.0167234 6.74984 0.0376277 6.68179 0.066896 6.62011C0.0752577 6.60097 0.0857105 6.58183 0.0961625 6.56482C0.114976 6.53292 0.13588 6.50315 0.158876 6.4755L0.160967 6.47337C0.167238 6.46487 0.173509 6.45849 0.179781 6.45211L0.181871 6.44998L0.188143 6.4436L5.22399 0.238186C5.34942 0.0829364 5.53337 0.00212668 5.71733 0.00212668V0H33.225C33.7539 0 34.2347 0.219046 34.5817 0.57421C34.9287 0.927241 35.1461 1.41639 35.1461 1.95445V9.04674L39.7053 3.50662C39.9332 3.23015 40.3366 3.194 40.6063 3.4258L40.9742 3.74055L42.1093 2.36249C42.3372 2.08602 42.7406 2.04987 43.0103 2.28167L44.7705 3.78098C45.0422 4.01279 45.0777 4.42324 44.8499 4.69758L43.7148 6.07782L44.0827 6.39044C44.3545 6.62225 44.39 7.03271 44.1621 7.30705L43.9991 7.50483L44.2332 7.70474C44.5698 7.99184 44.7621 8.39377 44.7976 8.80634C44.8332 9.21891 44.714 9.64639 44.4318 9.98879L42.0926 12.8301C41.8648 13.1065 41.4613 13.1427 41.1917 12.9109C40.9199 12.6791 40.8844 12.2686 41.1122 11.9943L43.4514 9.153C43.5057 9.08707 43.5287 9.00201 43.5225 8.91906C43.5162 8.83825 43.4786 8.75956 43.4138 8.70427L43.1776 8.50436L35.1439 18.2638V31.0024L36.5738 31.3427L37.8803 25.6496C37.9388 25.3922 38.1416 25.2051 38.382 25.1583L42.4667 24.3459C42.9809 24.2438 43.4889 24.365 43.8944 24.6436C44.3021 24.9222 44.6031 25.3561 44.7055 25.8792V25.8813C44.8059 26.4045 44.6867 26.9213 44.4149 27.3339C44.1411 27.7486 43.7146 28.0548 43.2004 28.159L41.1351 28.5695L37.5981 43.9899L37.59 43.9837Z" fill="black"/>
</svg>
