<svg width="40" height="40" viewBox="0 0 40 40" fill="none" xmlns="http://www.w3.org/2000/svg">
<path fill-rule="evenodd" clip-rule="evenodd" d="M37.6242 28.8536H2.36574C1.05952 28.8536 0 27.7887 0 26.4711V2.38255C0 1.06704 1.05745 0 2.36574 0H37.6343C38.9405 0 40 1.06496 40 2.38255V26.4609C40 27.7764 38.9429 28.8536 37.6242 28.8536ZM2.36574 1.02316C1.62141 1.02316 1.02634 1.63288 1.02634 2.37208V26.4606C1.02634 27.2102 1.63176 27.8095 2.36574 27.8095H37.6242C38.3685 27.8095 38.974 27.1998 38.974 26.4501V2.37176C38.974 1.62214 38.3686 1.02284 37.6346 1.02284L2.36574 1.02316Z" fill="black"/>
<path fill-rule="evenodd" clip-rule="evenodd" d="M36.5675 25.2401H3.44706C3.16715 25.2401 2.92871 25.0125 2.92871 24.7181V4.10797C2.92871 3.82607 3.15471 3.58594 3.44706 3.58594H36.5675C36.8474 3.58594 37.0858 3.81354 37.0858 4.10797V24.7181C37.0858 25.0125 36.8474 25.2401 36.5675 25.2401ZM3.95503 24.2065H36.0494V4.63022H3.95503V24.2065Z" fill="black"/>
<path fill-rule="evenodd" clip-rule="evenodd" d="M23.8658 37.009H16.1443C15.8644 37.009 15.626 36.7814 15.626 36.487V28.3306C15.626 28.0487 15.852 27.8086 16.1443 27.8086H23.8658C24.1457 27.8086 24.3841 28.0362 24.3841 28.3306V36.487C24.3738 36.7814 24.1457 37.009 23.8658 37.009ZM16.6523 35.9754H23.3472V28.8529H16.6523V35.9754Z" fill="black"/>
<path fill-rule="evenodd" clip-rule="evenodd" d="M30.6588 39.9988H9.35229C9.1802 39.9988 9.01847 39.9111 8.92102 39.7586C8.82357 39.6062 8.81321 39.4224 8.88785 39.2575L11.5771 33.5483C11.6641 33.3625 11.8466 33.2539 12.0415 33.2539H16.1344C16.4143 33.2539 16.6527 33.4815 16.6527 33.7759C16.6527 34.0704 16.4267 34.298 16.1344 34.298H12.3649L10.1609 38.9754H29.8374L27.6334 34.298H23.8639C23.584 34.298 23.3455 34.0704 23.3455 33.7759C23.3455 33.4815 23.5715 33.2539 23.8639 33.2539H27.9568C28.1517 33.2539 28.3341 33.3729 28.4212 33.5483L31.1104 39.2575C31.1851 39.4204 31.1747 39.6062 31.0773 39.7586C30.9902 39.9111 30.8285 39.9988 30.6564 39.9988H30.6588Z" fill="black"/>
</svg>
