<svg width="32" height="40" viewBox="0 0 32 40" fill="none" xmlns="http://www.w3.org/2000/svg">
<path fill-rule="evenodd" clip-rule="evenodd" d="M25.8947 19.1268C25.8947 19.3566 25.7085 19.5422 25.478 19.5422H16.6067V12.5252H25.8948L25.8947 19.1268ZM6.10536 11.3123V10.2978C6.10536 10.0699 6.2916 9.88246 6.52209 9.88246H25.4797C25.7102 9.88246 25.8964 10.0699 25.8964 10.2978V11.3123H6.10536ZM6.10536 19.1268V12.5253H15.3934V19.5423L6.52218 19.5404C6.29169 19.5404 6.10536 19.3547 6.10536 19.1268ZM25.4779 8.67093H6.52218C5.62236 8.67093 4.8903 9.40241 4.8903 10.2993V19.1287C4.8903 20.0255 5.62236 20.7552 6.52218 20.7552H25.4798C26.3796 20.7552 27.1117 20.0255 27.1117 19.1287V10.2993C27.1117 9.40053 26.3796 8.67093 25.4779 8.67093ZM16.6085 23.4954V27.8604L17.4733 26.7117C17.6743 26.4452 18.056 26.3901 18.3252 26.5904C18.5944 26.7926 18.6479 27.1712 18.4469 27.4395L16.4517 30.0861C16.1899 30.3636 15.7805 30.3562 15.515 30.0438L13.5567 27.4395C13.3558 27.173 13.4092 26.7926 13.6784 26.5904C13.9477 26.3901 14.3275 26.4433 14.5304 26.7117L15.3952 27.8604V23.4954C15.3952 23.1609 15.6681 22.8889 16.0037 22.8889C16.3356 22.8907 16.6085 23.1609 16.6085 23.4954ZM18.8618 35.5411C18.3713 35.5411 17.973 35.1442 17.973 34.6553C17.973 34.1664 18.3713 33.7676 18.8618 33.7676C19.3523 33.7676 19.7506 34.1646 19.7506 34.6553C19.7506 35.1442 19.3523 35.5411 18.8618 35.5411ZM14.0289 34.6553C14.0289 35.1442 13.6306 35.5411 13.1402 35.5411C12.6496 35.5411 12.2514 35.1442 12.2514 34.6553C12.2514 34.1664 12.6497 33.7676 13.1402 33.7676C13.6288 33.7676 14.0289 34.1646 14.0289 34.6553ZM23.0475 26.278C22.7229 26.1917 22.3892 26.3865 22.3044 26.7099L20.997 31.6394C20.8514 32.1871 20.3719 32.5565 19.8022 32.5565H11.7183C11.2112 32.5565 10.7871 32.2789 10.5843 31.814L7.91794 25.6829C7.52334 24.775 6.66035 24.2107 5.66833 24.2107H3.69162C3.35602 24.2107 3.0831 24.4809 3.0831 24.8173C3.0831 25.1518 3.356 25.4238 3.69162 25.4238H5.66833C6.17541 25.4238 6.59955 25.7013 6.80234 26.1645L9.46868 32.2955C9.80059 33.0583 10.4607 33.5747 11.2518 33.7217C10.5621 35.1056 11.5726 36.7524 13.1381 36.7524C14.6833 36.7524 15.6939 35.1442 15.0466 33.7658H16.9533C16.3061 35.146 17.3166 36.7524 18.8618 36.7524C20.49 36.7524 21.4894 34.9862 20.6855 33.6059C21.4064 33.3339 21.9652 32.7366 22.1735 31.9463L23.4809 27.0188C23.5675 26.6953 23.3739 26.3644 23.0475 26.278ZM30.783 37.1583V2.84294C30.783 1.9442 30.0491 1.21276 29.1474 1.21276H6.71223V3.84831C6.71223 5.41418 5.43254 6.6897 3.86146 6.6897L1.21722 6.69154V37.1583C1.21722 38.057 1.95112 38.7884 2.85278 38.7884H29.1513C30.0511 38.7866 30.783 38.057 30.783 37.1583ZM5.49519 2.06944V3.8485C5.49519 4.74724 4.76129 5.47868 3.85962 5.47868H2.0747L5.49519 2.06944ZM29.1492 0H6.10366C5.94324 0 5.78834 0.0643265 5.67402 0.178277L0.178865 5.65536C0.0645389 5.76931 0 5.92369 0 6.08542V37.1586C0 38.7245 1.27968 40 2.85077 40H29.1492C30.7221 40 32 38.7264 32 37.1586V2.84321C32 1.27551 30.7203 0 29.1492 0Z" fill="black"/>
</svg>
