<svg width="40" height="54" viewBox="0 0 40 54" fill="none" xmlns="http://www.w3.org/2000/svg">
<path d="M8.54273 40H33.4573C33.7555 40 34 39.7592 34 39.4605V23.3078V12.5395C34 12.243 33.7578 12 33.4573 12H8.54273C8.24445 12 8 12.2408 8 12.5395V39.4605C8 39.7592 8.24221 40 8.54273 40ZM32.9141 17.3865V19.5401H20.9986V17.3865H32.9141ZM9.08299 33.5392H13.9587V35.6928H9.08299V33.5392ZM9.08299 30.3086H13.9587V32.4623H9.08299V30.3086ZM9.08299 27.0781H13.9587V29.2317H9.08299V27.0781ZM9.08299 23.8476H13.9587V26.0012H9.08299V23.8476ZM9.08299 20.617H13.9587V22.7707H9.08299V20.617ZM32.9141 22.7707H20.9986V20.617H32.9141V22.7707ZM32.9141 26.0012H20.9986V23.8476H32.9141V26.0012ZM32.9141 29.2317H20.9986V27.0781H32.9141V29.2317ZM32.9141 32.4623H20.9986V30.3086H32.9141V32.4623ZM19.9152 27.0781V29.2317H15.0395V27.0781H19.9152ZM19.9152 30.3086V32.4623H15.0395V30.3086H19.9152ZM19.9152 26.0013H15.0395V23.8476H19.9152V26.0013ZM15.0418 33.5391H19.9174V35.6928H15.0418V33.5391ZM19.9152 22.7708H15.0395V20.6172H19.9152V22.7708ZM15.0418 36.7695H19.9174V38.9232H15.0418V36.7695ZM20.9984 33.539H32.914V35.6926H20.9984V33.539ZM19.9152 19.5403H15.0395V17.3867H19.9152V19.5403ZM13.9585 19.5403H9.08288V17.3867H13.9585V19.5403ZM9.08288 36.77H13.9585V38.9236H9.08288V36.77ZM32.914 38.9236H20.9984V36.77H32.914V38.9236ZM32.914 16.3101H15.0395V13.0796H32.914V16.3101ZM9.08288 13.0796H13.9585V16.3101H9.08288V13.0796Z" fill="black"/>
<path d="M8.53436 43H23.4656C23.7593 43 24 42.7769 24 42.5C24 42.2252 23.7615 42 23.4656 42H8.53436C8.24068 42 8 42.2231 8 42.5C8 42.7748 8.23847 43 8.53436 43Z" fill="black"/>
<path d="M8.50094 45H17.4991C17.7744 45 18 44.7769 18 44.5C18 44.2252 17.7764 44 17.4991 44H8.50094C8.22563 44 8 44.2231 8 44.5C8 44.7769 8.22356 45 8.50094 45Z" fill="black"/>
<path d="M37.3347 42.4901C37.3369 5.58186 37.4385 7.79504 37.147 7.54988C37.1359 7.53673 29.725 0.177657 29.712 0.166998C29.6546 0.110022 29.659 0.0727652 29.5199 0.0464707C29.4117 0.0070244 29.3344 0.00702443 29.2505 0.0201728C28.1243 -0.0389969 23.6923 0.0552359 4.80296 0.0114076C4.50927 0.0114076 4.26857 0.248081 4.26857 0.541735V3.18903H0.534396C0.240699 3.18903 0 3.4257 0 3.71935V53.4697C0 53.7611 0.238489 54 0.534396 54H33.6007C37.1295 54 40 51.1511 40 47.6494C40.0022 45.5237 38.9489 43.6456 37.3347 42.4907L37.3347 42.4901ZM35.5129 7.42029H29.8685V1.81676L35.5129 7.42029ZM5.33477 1.06966H28.7998V7.951C28.7998 8.24247 29.0383 8.48133 29.3342 8.48133H36.2683V41.8743C31.6575 39.7683 26.433 43.6362 27.2917 48.7051L5.33494 48.703L5.33477 1.06966ZM1.06841 52.9367V4.24498H4.2682V49.2312C4.2682 49.5227 4.50669 49.7615 4.80259 49.7615H27.5694C28.0376 51.0698 28.9231 52.1809 30.0692 52.937L1.06841 52.9367ZM33.6005 52.9367C30.6591 52.9367 28.2675 50.5633 28.2675 47.6443C28.2675 44.7253 30.6591 42.352 33.6005 42.352C36.5418 42.352 38.9334 44.7253 38.9334 47.6443C38.9356 50.5611 36.5418 52.9367 33.6005 52.9367Z" fill="black"/>
<path d="M33.5 43C31.0194 43 29 45.0194 29 47.5C29 49.9806 31.0194 52 33.5 52C35.9806 52 38 49.9806 38 47.5C38.0023 45.0171 35.9829 43 33.5 43ZM33.5 50.875C31.639 50.875 30.125 49.361 30.125 47.4999C30.125 45.6389 31.639 44.1249 33.5 44.1249C35.361 44.1249 36.875 45.6389 36.875 47.4999C36.8773 49.361 35.3633 50.875 33.5 50.875Z" fill="black"/>
<path d="M34.9185 46.1578L33.1251 48.6938L32.0789 47.7991C31.8324 47.5883 31.4313 47.5883 31.1848 47.7991C30.9384 48.0099 30.9384 48.353 31.1848 48.5637L32.6794 49.8419C32.9258 50.0527 33.327 50.0527 33.5734 49.8419L35.8152 46.9247C36.0616 46.7139 36.0616 46.3708 35.8152 46.1601C35.5687 45.9471 35.1675 45.947 34.9185 46.1578Z" fill="black"/>
</svg>
