<svg width="48" height="41" viewBox="0 0 48 41" fill="none" xmlns="http://www.w3.org/2000/svg">
<path d="M47.2289 23.3181L41.5479 15.4237C40.9901 14.6464 40.1558 14.2174 39.209 14.2174H31.0788C30.6593 14.2174 30.3218 14.5634 30.3218 14.9828V28.4086H0.756984C0.337472 28.4086 0 28.7546 0 29.174V35.8478C0 36.272 0.34217 36.6132 0.756984 36.6132H5.94578V36.7223C5.94578 39.0827 7.84181 41 10.1761 41C12.5103 41 14.4063 39.0827 14.4063 36.7223V36.6132L31.0789 36.6109H34.264V36.7199C34.264 39.0803 36.16 40.9976 38.4942 40.9976C40.8285 40.9976 42.7245 39.0803 42.7245 36.7199V36.6109H47.243C47.6625 36.6109 48 36.2649 48 35.8454L47.9977 25.7019C47.9977 24.8156 47.7445 24.0338 47.2289 23.3181ZM10.1759 39.4691C8.68297 39.4691 7.46431 38.2368 7.46431 36.7271C7.46431 35.2175 8.68297 33.9851 10.1759 33.9851C11.6688 33.9851 12.8874 35.2175 12.8874 36.7271C12.8874 38.2415 11.6688 39.4691 10.1759 39.4691ZM30.3169 35.0823H14.0805C13.4454 33.5348 11.9337 32.4494 10.1737 32.4494C8.41592 32.4494 6.90429 33.5419 6.26682 35.0823H1.51391V29.9443H30.3125L30.3169 35.0823ZM38.4939 39.4691C37.001 39.4691 35.7824 38.2368 35.7824 36.7271C35.7824 35.2175 37.001 33.9851 38.4939 33.9851C39.9868 33.9851 41.2055 35.2175 41.2055 36.7271C41.2055 38.2415 39.9868 39.4691 38.4939 39.4691ZM42.4008 35.0823C41.7656 33.5348 40.254 32.4494 38.4939 32.4494C36.7362 32.4494 35.2246 33.5419 34.5871 35.0823H31.8404V15.7534H39.2134C39.6821 15.7534 40.0524 15.9477 40.329 16.3293L46.01 24.2237C46.3334 24.6716 46.4834 25.1456 46.4834 25.7049V31.5847H44.7726C44.353 31.5847 44.0156 31.9307 44.0156 32.3502C44.0156 32.7697 44.3577 33.1157 44.7726 33.1157H46.4834V35.0804L42.4008 35.0756L42.4008 35.0823ZM45.3045 25.5814C45.4358 25.3254 45.4123 25.0173 45.2436 24.7804L39.6587 17.0212C39.5157 16.8222 39.286 16.706 39.047 16.706H33.5394C33.1199 16.706 32.7825 17.052 32.7825 17.4715V25.2355C32.7825 25.6597 33.1246 26.001 33.5394 26.001H44.6317C44.913 25.9986 45.1779 25.835 45.3045 25.5814ZM34.2938 24.4652V18.2392H38.6553L43.1364 24.4652H34.2938ZM36.7594 28.0011C36.7594 28.4253 36.4172 28.7666 36.0024 28.7666H33.5368C33.1173 28.7666 32.7799 28.4206 32.7799 28.0011C32.7799 27.5816 33.122 27.2356 33.5368 27.2356H36.0024C36.4172 27.238 36.7594 27.5769 36.7594 28.0011ZM11.2372 36.7249C11.2372 37.3126 10.7638 37.7984 10.1755 37.7984C9.59429 37.7984 9.11387 37.3197 9.11387 36.7249C9.11387 36.1371 9.58728 35.6513 10.1755 35.6513C10.7567 35.6513 11.2372 36.1371 11.2372 36.7249ZM39.5552 36.7249C39.5552 37.3126 39.0818 37.7984 38.4936 37.7984C37.9123 37.7984 37.4319 37.3197 37.4319 36.7249C37.4319 36.1371 37.9053 35.6513 38.4936 35.6513C39.0748 35.6513 39.5552 36.1371 39.5552 36.7249ZM2.86096 27.2664H14.2418C14.6613 27.2664 14.9988 26.9204 14.9988 26.5009V14.9948C14.9988 14.5706 14.6566 14.2293 14.2418 14.2293H2.85856C2.43905 14.2293 2.10158 14.5753 2.10158 14.9948V26.5033C2.10627 26.9204 2.44147 27.2664 2.86096 27.2664ZM9.42525 15.7578V17.9429H7.67921V15.7578H9.42525ZM3.62239 15.7578H6.16057V18.706C6.16057 19.1303 6.50274 19.4715 6.91755 19.4715H10.1869C10.6064 19.4715 10.9439 19.1255 10.9439 18.706V15.7578H13.4821V25.7326H3.62215L3.62239 15.7578ZM16.9298 27.2664H28.3106C28.7301 27.2664 29.0676 26.9204 29.0676 26.5009V14.9948C29.0676 14.5706 28.7254 14.2293 28.3106 14.2293H16.9274C16.5078 14.2293 16.1704 14.5753 16.1704 14.9948V26.5033C16.168 26.9204 16.5103 27.2664 16.9298 27.2664ZM23.494 15.7578V17.9429H21.741V15.7578H23.494ZM17.6865 15.7578H20.2247V18.706C20.2247 19.1303 20.5668 19.4715 20.9817 19.4715H24.251C24.6705 19.4715 25.008 19.1255 25.008 18.706V15.7578H27.5462V25.7326H17.6863L17.6865 15.7578ZM2.8606 13.0395H14.2415C14.661 13.0395 14.9984 12.6935 14.9984 12.274V0.765477C14.9984 0.341258 14.6563 0 14.2415 0H2.8582C2.43869 0 2.10122 0.346008 2.10122 0.765477V12.274C2.10591 12.7006 2.44111 13.0395 2.8606 13.0395ZM9.42489 1.53581V3.72091H7.67886V1.53581H9.42489ZM3.62203 1.53581H6.16021V4.48402C6.16021 4.90824 6.50238 5.2495 6.91719 5.2495H10.1866C10.6061 5.2495 10.9435 4.90349 10.9435 4.48402V1.53581H13.4817V11.5106H3.62179L3.62203 1.53581ZM16.9294 13.0395H28.3103C28.7298 13.0395 29.0672 12.6935 29.0672 12.274V0.765477C29.0672 0.341258 28.7251 0 28.3103 0H16.927C16.5075 0 16.17 0.346008 16.17 0.765477V12.274C16.1677 12.7006 16.5099 13.0395 16.9294 13.0395ZM23.4937 1.53581V3.72091H21.7406V1.53581H23.4937ZM17.6861 1.53581H20.2243V4.48402C20.2243 4.90824 20.5665 5.2495 20.9813 5.2495H24.2507C24.6702 5.2495 25.0077 4.90349 25.0077 4.48402V1.53581H27.5458V11.5106H17.6859L17.6861 1.53581Z" fill="black"/>
</svg>
