<svg width="45" height="51" viewBox="0 0 45 51" fill="none" xmlns="http://www.w3.org/2000/svg">
<path d="M11.5377 11.5452C11.5377 10.5815 12.3122 9.80098 13.2685 9.80098H17.8831C18.8394 9.80098 19.6139 10.5815 19.6139 11.5452C19.6139 12.5089 18.8394 13.2894 17.8831 13.2894H13.2685C12.3122 13.2894 11.5377 12.5089 11.5377 11.5452ZM27.1146 13.2894H31.7293C32.6856 13.2894 33.4601 12.5089 33.4601 11.5452C33.4601 10.5815 32.6856 9.80098 31.7293 9.80098H27.1146C26.1584 9.80098 25.3839 10.5815 25.3839 11.5452C25.3839 12.5089 26.1584 13.2894 27.1146 13.2894ZM17.8831 22.5926C18.8394 22.5926 19.6139 21.8121 19.6139 20.8484C19.6139 19.8847 18.8394 19.1042 17.8831 19.1042H13.2685C12.3122 19.1042 11.5377 19.8847 11.5377 20.8484C11.5377 21.8121 12.3122 22.5926 13.2685 22.5926H17.8831ZM27.1146 22.5926H31.7293C32.6856 22.5926 33.4601 21.8121 33.4601 20.8484C33.4601 19.8847 32.6856 19.1042 31.7293 19.1042H27.1146C26.1584 19.1042 25.3839 19.8847 25.3839 20.8484C25.3839 21.8121 26.1584 22.5926 27.1146 22.5926ZM45 48.7558C45 49.7195 44.2255 50.5 43.2692 50.5H1.73077C0.774498 50.5 0 49.7195 0 48.7558C0 47.7921 0.774498 47.0116 1.73077 47.0116H4.61465V6.8947C4.61465 3.36704 7.46175 0.5 10.9601 0.5H34.0377C37.5382 0.5 40.3831 3.36921 40.3831 6.8947V47.0116H43.267C44.2233 47.0116 44.9978 47.7921 44.9978 48.7558H45ZM8.07619 47.0116H13.8462V32.4757C13.8462 30.2323 15.657 28.4052 17.8854 28.4052H27.1169C29.343 28.4052 31.1561 30.23 31.1561 32.4757V47.0116H36.926L36.9239 6.8947C36.9239 5.2922 35.6301 3.98842 34.04 3.98842L10.9623 3.98624C9.37218 3.98624 8.07845 5.29002 8.07845 6.89252V47.0094L8.07619 47.0116ZM27.6923 47.0116V32.4757C27.6923 32.1552 27.4327 31.8936 27.1146 31.8936H17.8831C17.5651 31.8936 17.3055 32.1552 17.3055 32.4757V47.0116H27.6923Z" fill="black"/>
</svg>
