<svg width="36" height="48" viewBox="0 0 36 48" fill="none" xmlns="http://www.w3.org/2000/svg">
<path d="M7.81642 35.5554H29.9627C30.2278 35.5554 30.4451 35.3414 30.4451 35.0758V20.7179V11.1461C30.4451 10.8825 30.2298 10.6665 29.9627 10.6665H7.81642C7.55128 10.6665 7.33398 10.8805 7.33398 11.1461V35.0758C7.33398 35.3414 7.54928 35.5554 7.81642 35.5554ZM29.4799 15.4545V17.3688H18.8883V15.4545H29.4799ZM8.29665 29.8124H12.6306V31.7268H8.29665V29.8124ZM8.29665 26.9408H12.6306V28.8552H8.29665V26.9408ZM8.29665 24.0692H12.6306V25.9836H8.29665V24.0692ZM8.29665 21.1977H12.6306V23.112H8.29665V21.1977ZM8.29665 18.3261H12.6306V20.2404H8.29665V18.3261ZM29.4799 20.2404H18.8883V18.3261H29.4799V20.2404ZM29.4799 23.112H18.8883V21.1977H29.4799V23.112ZM29.4799 25.9836H18.8883V24.0692H29.4799V25.9836ZM29.4799 28.8552H18.8883V26.9408H29.4799V28.8552ZM17.9253 24.0692V25.9836H13.5913V24.0692H17.9253ZM17.9253 26.9408V28.8552H13.5913V26.9408H17.9253ZM17.9253 23.1121H13.5913V21.1977H17.9253V23.1121ZM13.5933 29.8124H17.9272V31.7267H13.5933V29.8124ZM17.9253 20.2406H13.5913V18.3262H17.9253V20.2406ZM13.5933 32.6839H17.9272V34.5982H13.5933V32.6839ZM18.8881 29.8123H29.4797V31.7266H18.8881V29.8123ZM17.9253 17.369H13.5913V15.4546H17.9253V17.369ZM12.6305 17.369H8.29654V15.4546H12.6305V17.369ZM8.29654 32.6843H12.6305V34.5986H8.29654V32.6843ZM29.4798 34.5986H18.8882V32.6843H29.4798V34.5986ZM29.4798 14.4977H13.5913V11.6261H29.4798V14.4977ZM8.29654 11.6261H12.6305V14.4977H8.29654V11.6261Z" fill="black"/>
<path d="M7.80897 38.2224H21.0812C21.3423 38.2224 21.5562 38.024 21.5562 37.7779C21.5562 37.5337 21.3442 37.3335 21.0812 37.3335H7.80897C7.54793 37.3335 7.33398 37.5318 7.33398 37.7779C7.33398 38.0222 7.54596 38.2224 7.80897 38.2224Z" fill="black"/>
<path d="M7.77927 40.0002H15.7776C16.0223 40.0002 16.2229 39.8019 16.2229 39.5558C16.2229 39.3115 16.0242 39.1113 15.7776 39.1113H7.77927C7.53455 39.1113 7.33398 39.3097 7.33398 39.5558C7.33398 39.8019 7.5327 40.0002 7.77927 40.0002Z" fill="black"/>
<path d="M33.409 37.769C33.411 4.96165 33.5013 6.92893 33.2422 6.71101C33.2324 6.69932 26.6449 0.157918 26.6333 0.148443C26.5823 0.0977972 26.5862 0.0646802 26.4625 0.0413073C26.3664 0.00624391 26.2977 0.00624394 26.2231 0.0179314C25.222 -0.0346639 21.2825 0.0490986 4.49196 0.0101401C4.23089 0.0101401 4.01694 0.220516 4.01694 0.481543V2.83469H0.697675C0.436611 2.83469 0.222656 3.04507 0.222656 3.30609V47.5286C0.222656 47.7877 0.434646 48 0.697675 48H30.0899C33.2266 48 35.7782 45.4677 35.7782 42.355C35.7802 40.4655 34.8439 38.7961 33.409 37.7695L33.409 37.769ZM31.7896 6.59581H26.7725V1.6149L31.7896 6.59581ZM4.96467 0.950811H25.8224V7.06756C25.8224 7.32664 26.0344 7.53896 26.2975 7.53896H32.4611V37.2216C28.3626 35.3496 23.7186 38.7877 24.4819 43.2935L4.96483 43.2915L4.96467 0.950811ZM1.17236 47.0548V3.77331H4.01661V43.7611C4.01661 44.0201 4.2286 44.2325 4.49163 44.2325H24.7288C25.1449 45.3954 25.932 46.383 26.9508 47.0551L1.17236 47.0548ZM30.0897 47.0548C27.4752 47.0548 25.3493 44.9452 25.3493 42.3505C25.3493 39.7559 27.4752 37.6462 30.0897 37.6462C32.7043 37.6462 34.8301 39.7559 34.8301 42.3505C34.8321 44.9432 32.7043 47.0548 30.0897 47.0548Z" fill="black"/>
<path d="M30 38.2222C27.795 38.2222 26 40.0172 26 42.2222C26 44.4272 27.795 46.2222 30 46.2222C32.205 46.2222 34 44.4272 34 42.2222C34.0021 40.0151 32.2071 38.2222 30 38.2222ZM30 45.2221C28.3458 45.2221 27 43.8764 27 42.2221C27 40.5679 28.3458 39.2221 30 39.2221C31.6542 39.2221 33 40.5679 33 42.2221C33.0021 43.8764 31.6563 45.2221 30 45.2221Z" fill="black"/>
<path d="M31.2604 41.0289L29.6663 43.2832L28.7364 42.4879C28.5173 42.3005 28.1607 42.3005 27.9417 42.4879C27.7226 42.6752 27.7226 42.9802 27.9417 43.1675L29.2701 44.3037C29.4892 44.4911 29.8458 44.4911 30.0648 44.3037L32.0575 41.7106C32.2766 41.5233 32.2766 41.2183 32.0575 41.031C31.8384 40.8416 31.4818 40.8416 31.2604 41.0289Z" fill="black"/>
</svg>
