<svg width="44" height="39" viewBox="0 0 44 39" fill="none" xmlns="http://www.w3.org/2000/svg">
<path fill-rule="evenodd" clip-rule="evenodd" d="M32.3123 16.1377C25.8633 16.1377 20.6246 21.2594 20.6246 27.5689C20.6246 33.8783 25.8633 39 32.3123 39C38.7613 39 44 33.8783 44 27.5689C44 21.2594 38.7613 16.1377 32.3123 16.1377ZM32.3123 17.4828C38.0058 17.4828 42.6248 22.0019 42.6248 27.5689C42.6248 33.1359 38.0063 37.6566 32.3123 37.6566C26.6203 37.6566 21.9998 33.1355 21.9998 27.5689C21.9998 22.0023 26.6203 17.4828 32.3123 17.4828ZM6.60634 31.9557C6.61428 31.9576 6.62025 31.9615 6.63416 31.9634L11.4196 33.8372C11.4256 33.8411 11.4335 33.843 11.4475 33.8469L17.6202 36.2629C17.7852 36.3271 17.964 36.3271 18.129 36.2629L20.8794 35.1861C21.2312 35.05 21.4021 34.6574 21.265 34.3134C21.1199 33.9674 20.7224 33.8003 20.3707 33.9382L18.5622 34.6458V14.5769L34.2243 8.45062C34.3197 8.68969 34.3753 8.95015 34.3753 9.2184V14.7929C34.3753 15.1641 34.6853 15.4654 35.063 15.4654C35.4405 15.4654 35.7506 15.1642 35.7506 14.7929V9.2184C35.7506 7.8442 34.898 6.60605 33.5923 6.09682C29.2321 4.39023 18.1287 0.0481083 18.1287 0.0481083C17.9637 -0.0160361 17.7848 -0.0160361 17.6199 0.0481083C17.6199 0.0481083 6.52441 4.39038 2.15825 6.09682C0.858528 6.60605 0 7.8442 0 9.2184V27.0928C0 28.469 0.858528 29.7052 2.15825 30.2144L6.60634 31.9557ZM1.53265 8.45049C1.42931 8.68957 1.37565 8.95002 1.37565 9.21828V27.0927C1.37565 27.9188 1.89036 28.6593 2.67339 28.9664L6.18697 30.3426V25.5533C6.18697 25.2637 6.37378 25.0051 6.654 24.9138C6.9362 24.8224 7.24624 24.9177 7.42507 25.149L9.21167 27.4814L11.523 26.9177C11.7296 26.8672 11.9423 26.9119 12.1132 27.0402C12.2782 27.1665 12.3755 27.3628 12.3755 27.5689V32.7627L17.1869 34.6462V14.5774L12.3755 12.6939V17.4832C12.3755 17.7553 12.2106 18.0003 11.9483 18.1052C11.6939 18.2082 11.3998 18.1519 11.199 17.9594L8.75261 15.5628L7.09518 16.1051C6.88253 16.1731 6.65399 16.1382 6.47714 16.0118C6.29033 15.8855 6.18699 15.6814 6.18699 15.4656V10.2738L1.53265 8.45049ZM24.9492 28.0451L29.7625 32.7528C30.0308 33.0152 30.47 33.0152 30.7383 32.7528L38.9878 24.6823C39.2561 24.4199 39.2561 23.9943 38.9878 23.7318C38.7195 23.4694 38.2803 23.4694 38.012 23.7318L30.2494 31.3261L25.925 27.0946C25.6567 26.8322 25.2175 26.8322 24.9492 27.0946C24.6809 27.357 24.6809 27.7827 24.9492 28.0451ZM7.56193 30.879L11 32.2241V28.4319L9.10209 28.8945C8.83381 28.9606 8.55162 28.8614 8.38668 28.6457L7.56193 27.5689V30.879ZM7.56193 10.8102V14.5324L8.71656 14.1554C8.96498 14.0757 9.2392 14.1379 9.42602 14.3186L11 15.86V12.1553L7.56193 10.8102ZM28.8743 5.69996L13.5363 11.7004L17.8746 13.3973L33.207 7.39884C33.1653 7.3794 33.1236 7.36191 33.0759 7.34441L28.8743 5.69996ZM8.72495 9.81673L11.6881 10.9752L27.0261 4.97672L24.063 3.81828L8.72495 9.81673ZM22.2131 3.09329L17.8748 1.39641L2.67364 7.3441C2.62594 7.3616 2.58421 7.37909 2.54446 7.39853L6.87485 9.09342L22.2131 3.09329Z" fill="black"/>
</svg>
