<svg width="30" height="40" viewBox="0 0 30 40" fill="none" xmlns="http://www.w3.org/2000/svg">
<path d="M6.51335 29.6294H24.9686C25.1895 29.6294 25.3706 29.451 25.3706 29.2298V17.2648V9.28833C25.3706 9.06868 25.1912 8.88867 24.9686 8.88867H6.51335C6.29241 8.88867 6.11133 9.06703 6.11133 9.28833V29.2298C6.11133 29.4511 6.29074 29.6294 6.51335 29.6294ZM24.5662 12.8787V14.474H15.7399V12.8787H24.5662ZM6.91355 24.8436H10.5251V26.4389H6.91355V24.8436ZM6.91355 22.4506H10.5251V24.0459H6.91355V22.4506ZM6.91355 20.0576H10.5251V21.6529H6.91355V20.0576ZM6.91355 17.6646H10.5251V19.2599H6.91355V17.6646ZM6.91355 15.2716H10.5251V16.8669H6.91355V15.2716ZM24.5662 16.8669H15.7399V15.2716H24.5662V16.8669ZM24.5662 19.2599H15.7399V17.6646H24.5662V19.2599ZM24.5662 21.6529H15.7399V20.0576H24.5662V21.6529ZM24.5662 24.0459H15.7399V22.4506H24.5662V24.0459ZM14.9374 20.0576V21.6529H11.3258V20.0576H14.9374ZM14.9374 22.4506V24.0459H11.3258V22.4506H14.9374ZM14.9374 19.26H11.3258V17.6647H14.9374V19.26ZM11.3274 24.8436H14.939V26.4389H11.3274V24.8436ZM14.9374 16.8671H11.3258V15.2718H14.9374V16.8671ZM11.3274 27.2365H14.939V28.8318H11.3274V27.2365ZM15.7398 24.8435H24.5661V26.4388H15.7398V24.8435ZM14.9374 14.4741H11.3258V12.8788H14.9374V14.4741ZM10.5251 14.4741H6.91346V12.8788H10.5251V14.4741ZM6.91346 27.2368H10.5251V28.8321H6.91346V27.2368ZM24.5662 28.8321H15.7398V27.2368H24.5662V28.8321ZM24.5662 12.0813H11.3258V9.68836H24.5662V12.0813ZM6.91346 9.68836H10.5251V12.0813H6.91346V9.68836Z" fill="black"/>
<path d="M6.50715 31.8521H17.5674C17.7849 31.8521 17.9632 31.6868 17.9632 31.4817C17.9632 31.2781 17.7865 31.1113 17.5674 31.1113H6.50715C6.28961 31.1113 6.11133 31.2766 6.11133 31.4817C6.11133 31.6852 6.28798 31.8521 6.50715 31.8521Z" fill="black"/>
<path d="M6.4824 33.3335H13.1477C13.3516 33.3335 13.5187 33.1682 13.5187 32.9631C13.5187 32.7596 13.3531 32.5928 13.1477 32.5928H6.4824C6.27846 32.5928 6.11133 32.7581 6.11133 32.9631C6.11133 33.1682 6.27693 33.3335 6.4824 33.3335Z" fill="black"/>
<path d="M27.8409 31.4742C27.8425 4.13471 27.9177 5.77411 27.7018 5.59251C27.6937 5.58277 22.2041 0.131598 22.1944 0.123702C22.1519 0.0814977 22.1552 0.0539001 22.0521 0.0344227C21.972 0.00520326 21.9147 0.00520328 21.8526 0.0149428C21.0183 -0.0288866 17.7354 0.0409155 3.7433 0.00845005C3.52574 0.00845005 3.34745 0.183763 3.34745 0.401286V2.36224H0.581396C0.363843 2.36224 0.185547 2.53756 0.185547 2.75508V39.6072C0.185547 39.8231 0.362205 40 0.581396 40H25.0749C27.6888 40 29.8152 37.8897 29.8152 35.2958C29.8168 33.7212 29.0366 32.3301 27.8409 31.4746L27.8409 31.4742ZM26.4914 5.49651H22.3104V1.34575L26.4914 5.49651ZM4.13723 0.792342H21.5187V5.88963C21.5187 6.10553 21.6954 6.28247 21.9146 6.28247H27.0509V31.018C23.6355 29.458 19.7655 32.3231 20.4016 36.0779L4.13736 36.0763L4.13723 0.792342ZM0.976964 39.2123V3.14443H3.34717V36.4676C3.34717 36.6835 3.52383 36.8604 3.74302 36.8604H20.6073C20.9541 37.8295 21.61 38.6525 22.459 39.2126L0.976964 39.2123ZM25.0748 39.2123C22.896 39.2123 21.1245 37.4543 21.1245 35.2921C21.1245 33.1299 22.896 31.3718 25.0748 31.3718C27.2536 31.3718 29.0251 33.1299 29.0251 35.2921C29.0267 37.4527 27.2536 39.2123 25.0748 39.2123Z" fill="black"/>
<path d="M24.9993 31.8521C23.1619 31.8521 21.666 33.3479 21.666 35.1854C21.666 37.0229 23.1619 38.5187 24.9993 38.5187C26.8368 38.5187 28.3327 37.0229 28.3327 35.1854C28.3344 33.3462 26.8386 31.8521 24.9993 31.8521ZM24.9993 37.6853C23.6208 37.6853 22.4993 36.5639 22.4993 35.1853C22.4993 33.8068 23.6208 32.6853 24.9993 32.6853C26.3779 32.6853 27.4994 33.8068 27.4994 35.1853C27.5011 36.5639 26.3796 37.6853 24.9993 37.6853Z" fill="black"/>
<path d="M26.051 34.1911L24.7226 36.0696L23.9476 35.4069C23.7651 35.2508 23.4679 35.2508 23.2854 35.4069C23.1028 35.563 23.1028 35.8172 23.2854 35.9733L24.3924 36.9201C24.575 37.0762 24.8721 37.0762 25.0547 36.9201L26.7152 34.7592C26.8978 34.6031 26.8978 34.3489 26.7152 34.1928C26.5327 34.035 26.2355 34.035 26.051 34.1911Z" fill="black"/>
</svg>
