<svg width="25" height="28" viewBox="0 0 25 28" fill="none" xmlns="http://www.w3.org/2000/svg">
<path d="M13.8292 22.4053V20.9869C13.8292 19.9712 14.044 19.0432 14.4737 18.2026C14.9123 17.3533 15.5478 16.6748 16.3802 16.167C17.2216 15.6504 18.2376 15.3921 19.428 15.3921C20.6454 15.3921 21.6658 15.646 22.4893 16.1538C23.3127 16.6617 23.9348 17.3402 24.3555 18.1895C24.7852 19.0388 25 19.9712 25 20.9869V22.4053C25 23.4209 24.7852 24.3533 24.3555 25.2026C23.9259 26.0431 23.2948 26.7217 22.4624 27.2383C21.6389 27.7461 20.6275 28 19.428 28C18.2197 28 17.1992 27.7461 16.3668 27.2383C15.5344 26.7217 14.9033 26.0431 14.4737 25.2026C14.044 24.3533 13.8292 23.4209 13.8292 22.4053ZM16.9576 20.9869V22.4053C16.9576 23.1582 17.1411 23.8411 17.5081 24.454C17.875 25.0669 18.515 25.3734 19.428 25.3734C20.3321 25.3734 20.9631 25.0669 21.3212 24.454C21.6792 23.8411 21.8582 23.1582 21.8582 22.4053V20.9869C21.8582 20.2339 21.6837 19.551 21.3346 18.9381C20.9945 18.3252 20.3589 18.0188 19.428 18.0188C18.5329 18.0188 17.8974 18.3252 17.5215 18.9381C17.1455 19.551 16.9576 20.2339 16.9576 20.9869ZM0 7.01313V5.59474C0 4.57911 0.214823 3.64665 0.644468 2.79737C1.08306 1.94809 1.71858 1.26954 2.55102 0.761725C3.39241 0.253909 4.40834 0 5.59882 0C6.81615 0 7.83655 0.253909 8.66004 0.761725C9.48353 1.26954 10.1056 1.94809 10.5263 2.79737C10.947 3.64665 11.1574 4.57911 11.1574 5.59474V7.01313C11.1574 8.02877 10.9425 8.96123 10.5129 9.81051C10.0922 10.651 9.46563 11.3296 8.63319 11.8462C7.8097 12.354 6.79825 12.6079 5.59882 12.6079C4.38149 12.6079 3.35661 12.354 2.52417 11.8462C1.70068 11.3296 1.07411 10.651 0.644468 9.81051C0.214823 8.96123 0 8.02877 0 7.01313ZM3.14178 5.59474V7.01313C3.14178 7.7661 3.3208 8.44903 3.67884 9.06191C4.04583 9.6748 4.68582 9.98124 5.59882 9.98124C6.49391 9.98124 7.12048 9.6748 7.47852 9.06191C7.84551 8.44903 8.029 7.7661 8.029 7.01313V5.59474C8.029 4.84177 7.85446 4.15885 7.50537 3.54597C7.15628 2.93308 6.52077 2.62664 5.59882 2.62664C4.70372 2.62664 4.06821 2.93308 3.69227 3.54597C3.32528 4.15885 3.14178 4.84177 3.14178 5.59474ZM1.27551 27.4484L20.1799 0.551594H23.3888L4.48443 27.4484H1.27551Z" fill="black"/>
</svg>
