<svg width="37" height="35" viewBox="0 0 37 35" fill="none" xmlns="http://www.w3.org/2000/svg">
<path fill-rule="evenodd" clip-rule="evenodd" d="M18.5435 3.17285C18.3881 3.17292 18.2352 3.21177 18.0986 3.28588L3.98655 10.9892C3.83845 11.069 3.71469 11.1875 3.62835 11.3319C3.54202 11.4763 3.49632 11.6414 3.49609 11.8096V33.9787C3.49708 34.2263 3.59637 34.4633 3.77212 34.6377C3.94787 34.8121 4.18568 34.9095 4.43326 34.9086H32.6519C32.8995 34.9095 33.1373 34.8121 33.3131 34.6377C33.4888 34.4633 33.5881 34.2263 33.5891 33.9787V11.8096C33.589 11.6416 33.5436 11.4766 33.4576 11.3322C33.3716 11.1878 33.2482 11.0693 33.1004 10.9892L18.9884 3.28589C18.8518 3.21178 18.6989 3.17292 18.5435 3.17285ZM18.5474 4.5572L32.3326 12.3676V33.6519H28.2602V17.3433C28.2592 17.0957 28.1599 16.8586 27.9842 16.6843C27.8085 16.5099 27.5706 16.4125 27.3231 16.4134H9.7644C9.51682 16.4125 9.27901 16.5099 9.10326 16.6843C8.92751 16.8586 8.82823 17.0957 8.82724 17.3433V33.6519H4.75473V12.3676L18.5474 4.5572ZM9.77881 17.365H27.3087V33.6519H25.8658V27.59C25.8663 27.4673 25.8425 27.3456 25.7959 27.2321C25.7494 27.1185 25.6808 27.0153 25.5943 26.9282C25.5078 26.8412 25.4049 26.7721 25.2916 26.7248C25.1784 26.6776 25.0569 26.6531 24.9341 26.6529H22.6751V21.2031C22.6756 21.0799 22.6517 20.9578 22.6047 20.8439C22.5578 20.73 22.4888 20.6265 22.4017 20.5394C22.3145 20.4523 22.2111 20.3833 22.0971 20.3363C21.9832 20.2894 21.8611 20.2655 21.7379 20.266H15.3492C15.1017 20.2669 14.8646 20.3662 14.6902 20.542C14.5158 20.7177 14.4184 20.9555 14.4194 21.2031V26.6529H12.1512C11.9036 26.6538 11.6666 26.7531 11.4922 26.9289C11.3178 27.1046 11.2204 27.3424 11.2213 27.59V33.6519H9.77866L9.77881 17.365ZM16.2792 22.133H17.6102V23.2561C17.6097 23.3793 17.6336 23.5014 17.6806 23.6153C17.7275 23.7292 17.7965 23.8327 17.8836 23.9199C17.9708 24.007 18.0743 24.076 18.1882 24.1229C18.3021 24.1698 18.4242 24.1937 18.5474 24.1933C18.67 24.1928 18.7913 24.1682 18.9043 24.1208C19.0174 24.0735 19.1201 24.0043 19.2064 23.9173C19.2927 23.8302 19.3611 23.7271 19.4076 23.6136C19.454 23.5002 19.4777 23.3787 19.4772 23.2561V22.133H20.8064V26.6529H18.5474H16.2792V22.133ZM13.0885 28.5217H14.4195V29.6448C14.419 29.7674 14.4427 29.8889 14.4892 30.0023C14.5356 30.1158 14.604 30.219 14.6903 30.306C14.7767 30.393 14.8793 30.4622 14.9924 30.5095C15.1055 30.5569 15.2268 30.5815 15.3494 30.582C15.472 30.5815 15.5933 30.5569 15.7063 30.5095C15.8194 30.4622 15.9221 30.393 16.0084 30.306C16.0947 30.219 16.1631 30.1158 16.2096 30.0023C16.256 29.8889 16.2797 29.7674 16.2792 29.6448V28.5217H17.6102V33.6519H13.0885V28.5217ZM19.4772 28.5217H20.8064V29.6448C20.8059 29.7676 20.8297 29.8892 20.8762 30.0028C20.9228 30.1163 20.9913 30.2196 21.0779 30.3066C21.1644 30.3937 21.2673 30.4628 21.3806 30.5101C21.4939 30.5573 21.6153 30.5817 21.7381 30.582C21.8613 30.5825 21.9834 30.5586 22.0973 30.5116C22.2112 30.4647 22.3147 30.3957 22.4018 30.3086C22.489 30.2215 22.558 30.118 22.6049 30.004C22.6518 29.8901 22.6757 29.768 22.6753 29.6448V28.5217H23.9971V33.6519H19.4771L19.4772 28.5217Z" fill="#0E0F14"/>
<rect x="10.5146" y="19.041" width="16.173" height="14.6473" fill="#F2F1FF"/>
<path d="M18.3251 27.584H16.2915V29.198H14.8265V27.584H12.793V33.1161H18.3251V27.584Z" fill="#0E0F14"/>
<path d="M24.7333 27.584H22.6997V29.198H21.2347V27.584H19.2012V33.1161H24.7333V27.584Z" fill="#0E0F14"/>
<path d="M21.6815 21.4824H19.6479V23.0964H18.183V21.4824H16.1494V27.0145H21.6815V21.4824Z" fill="#0E0F14"/>
<path d="M0.588799 9.16878V11.8117C0.588799 12.2991 0.978867 12.6943 1.46 12.6943H35.4203C35.9015 12.6943 36.2915 12.2991 36.2915 11.8117V9.16878C36.2915 8.8298 36.0999 8.52078 35.7984 8.37363L18.8182 0.0874276C18.5793 -0.0291425 18.301 -0.0291425 18.0621 0.0874276L1.08189 8.37363C0.780441 8.52078 0.588799 8.8298 0.588799 9.16878Z" fill="#0E0F14"/>
<path d="M15.6635 7.13998C15.6635 8.45097 16.7273 9.52013 18.0437 9.52013C19.3546 9.52013 20.4238 8.45097 20.4238 7.13998C20.4238 5.82355 19.3546 4.75977 18.0437 4.75977C16.7273 4.75977 15.6635 5.82355 15.6635 7.13998Z" fill="white"/>
</svg>
