<svg width="38" height="34" viewBox="0 0 38 34" fill="none" xmlns="http://www.w3.org/2000/svg">
<path fill-rule="evenodd" clip-rule="evenodd" d="M35.4479 31.1396H1.28125C0.574 31.1396 0 31.7108 0 32.4146C0 33.1184 0.574 33.6896 1.28125 33.6896H35.4479C36.1552 33.6896 36.7292 33.1184 36.7292 32.4146C36.7292 31.7108 36.1552 31.1396 35.4479 31.1396Z" fill="#0E0F14"/>
<path fill-rule="evenodd" clip-rule="evenodd" d="M2.5625 13.7145V32.4145C2.5625 33.1183 3.1365 33.6895 3.84375 33.6895H32.8854C33.5927 33.6895 34.1667 33.1183 34.1667 32.4145V13.7145C34.1667 13.0107 33.5927 12.4395 32.8854 12.4395C32.1782 12.4395 31.6042 13.0107 31.6042 13.7145V31.1395H5.125V13.7145C5.125 13.0107 4.551 12.4395 3.84375 12.4395C3.1365 12.4395 2.5625 13.0107 2.5625 13.7145Z" fill="#0E0F14"/>
<path fill-rule="evenodd" clip-rule="evenodd" d="M27.3335 19.6646C27.3335 18.9608 26.7595 18.3896 26.0522 18.3896H10.6772C9.97 18.3896 9.396 18.9608 9.396 19.6646V32.4146C9.396 33.1184 9.97 33.6896 10.6772 33.6896H26.0522C26.7595 33.6896 27.3335 33.1184 27.3335 32.4146V19.6646ZM24.771 20.9396V31.1396H11.9585V20.9396H24.771Z" fill="#0E0F14"/>
<path fill-rule="evenodd" clip-rule="evenodd" d="M32.8613 0.6001C32.6273 0.2261 32.2173 0 31.7748 0H6.14983C5.70737 0 5.29737 0.2261 5.06333 0.6001L0.792495 7.4001C0.546495 7.7928 0.532829 8.2875 0.758329 8.6938C0.983829 9.0984 1.41262 9.35 1.879 9.35H36.0457C36.512 9.35 36.9408 9.0984 37.1663 8.6938C37.3918 8.2875 37.3782 7.7928 37.1322 7.4001L32.8613 0.6001ZM31.0642 2.55L33.7343 6.8H4.19037L6.8605 2.55H31.0642Z" fill="#0E0F14"/>
<path fill-rule="evenodd" clip-rule="evenodd" d="M17.0835 19.6646V32.4146C17.0835 33.1184 17.6575 33.6896 18.3647 33.6896C19.072 33.6896 19.646 33.1184 19.646 32.4146V19.6646C19.646 18.9608 19.072 18.3896 18.3647 18.3896C17.6575 18.3896 17.0835 18.9608 17.0835 19.6646Z" fill="#0E0F14"/>
<path fill-rule="evenodd" clip-rule="evenodd" d="M6.229 14.8203C9.2667 14.8203 11.729 12.4394 11.729 9.50213V7.04759C11.729 6.37013 11.1604 5.82031 10.4598 5.82031H1.99823C1.29762 5.82031 0.729004 6.37013 0.729004 7.04759V9.50213C0.729004 12.4394 3.19131 14.8203 6.229 14.8203ZM6.229 12.3658C4.59423 12.3658 3.26747 11.0845 3.26747 9.50213V8.27486H9.19054V9.50213C9.19054 11.0845 7.86377 12.3658 6.229 12.3658Z" fill="#0E0F14"/>
<path fill-rule="evenodd" clip-rule="evenodd" d="M14.229 14.8203C17.2667 14.8203 19.729 12.4394 19.729 9.50213V7.04759C19.729 6.37013 19.1604 5.82031 18.4598 5.82031H9.99823C9.29762 5.82031 8.729 6.37013 8.729 7.04759V9.50213C8.729 12.4394 11.1913 14.8203 14.229 14.8203ZM14.229 12.3658C12.5942 12.3658 11.2675 11.0845 11.2675 9.50213V8.27486H17.1905V9.50213C17.1905 11.0845 15.8638 12.3658 14.229 12.3658Z" fill="#0E0F14"/>
<path fill-rule="evenodd" clip-rule="evenodd" d="M22.729 14.8203C25.4905 14.8203 27.729 12.4394 27.729 9.50213V7.04759C27.729 6.37013 27.2121 5.82031 26.5752 5.82031H18.8829C18.2459 5.82031 17.729 6.37013 17.729 7.04759V9.50213C17.729 12.4394 19.9675 14.8203 22.729 14.8203ZM22.729 12.3658C21.2429 12.3658 20.0367 11.0845 20.0367 9.50213V8.27486H25.4213V9.50213C25.4213 11.0845 24.2152 12.3658 22.729 12.3658Z" fill="#0E0F14"/>
<path fill-rule="evenodd" clip-rule="evenodd" d="M31.229 14.8203C34.2667 14.8203 36.729 12.4394 36.729 9.50213V7.04759C36.729 6.37013 36.1604 5.82031 35.4598 5.82031H26.9982C26.2976 5.82031 25.729 6.37013 25.729 7.04759V9.50213C25.729 12.4394 28.1913 14.8203 31.229 14.8203ZM31.229 12.3658C29.5942 12.3658 28.2675 11.0845 28.2675 9.50213V8.27486H34.1905V9.50213C34.1905 11.0845 32.8638 12.3658 31.229 12.3658Z" fill="#0E0F14"/>
</svg>
