<svg width="38" height="41" viewBox="0 0 38 41" fill="none" xmlns="http://www.w3.org/2000/svg">
<path d="M27 15.35C27 14.992 26.8578 14.6486 26.6046 14.3954C26.3514 14.1422 26.008 14 25.65 14H1.35C0.991958 14 0.64858 14.1422 0.395406 14.3954C0.142232 14.6486 0 14.992 0 15.35V39.65C0 40.008 0.142232 40.3514 0.395406 40.6046C0.64858 40.8578 0.991958 41 1.35 41H25.65C26.008 41 26.3514 40.8578 26.6046 40.6046C26.8578 40.3514 27 40.008 27 39.65V15.35ZM24.3 38.3H2.7V34.8994L8.0001 30.659L11.1956 33.8545C11.4487 34.1075 11.792 34.2497 12.15 34.2497C12.508 34.2497 12.8513 34.1075 13.1045 33.8545L18.9999 27.959L24.3 32.1994V38.3ZM24.3 28.7407L19.7437 25.0956C19.4843 24.8881 19.1573 24.7835 18.8256 24.8019C18.4938 24.8204 18.1804 24.9605 17.9456 25.1956L12.15 30.9911L9.05445 27.8956C8.81956 27.6605 8.50623 27.5204 8.17444 27.5019C7.84266 27.4835 7.51573 27.5881 7.25625 27.7957L2.7 31.4406V16.7H24.3V28.7407Z" fill="black"/>
<path d="M32 0L33.4849 4.51508L38 6L33.4849 7.48492L32 12L30.5151 7.48492L26 6L30.5151 4.51508L32 0Z" fill="black"/>
<path d="M21.5 4L22.3662 6.63379L25 7.5L22.3662 8.36621L21.5 11L20.6338 8.36621L18 7.5L20.6338 6.63379L21.5 4Z" fill="black"/>
</svg>
