<svg width="19" height="23" viewBox="0 0 19 23" fill="none" xmlns="http://www.w3.org/2000/svg">
<path d="M18.5 4.71429V17.5714C18.5 18.2534 18.2291 18.9075 17.7468 19.3897C17.2646 19.8719 16.6106 20.1429 15.9286 20.1429H12.9286C12.7012 20.1429 12.4832 20.0526 12.3225 19.8918C12.1617 19.7311 12.0714 19.513 12.0714 19.2857C12.0714 19.0584 12.1617 18.8404 12.3225 18.6796C12.4832 18.5189 12.7012 18.4286 12.9286 18.4286H15.9286C16.1559 18.4286 16.3739 18.3383 16.5347 18.1775C16.6954 18.0168 16.7857 17.7988 16.7857 17.5714V4.71429C16.7857 4.48696 16.6954 4.26894 16.5347 4.10819C16.3739 3.94745 16.1559 3.85714 15.9286 3.85714H12.9286C12.7012 3.85714 12.4832 3.76684 12.3225 3.60609C12.1617 3.44535 12.0714 3.22733 12.0714 3C12.0714 2.77267 12.1617 2.55465 12.3225 2.39391C12.4832 2.23316 12.7012 2.14286 12.9286 2.14286H15.9286C16.6106 2.14286 17.2646 2.41377 17.7468 2.89601C18.2291 3.37825 18.5 4.0323 18.5 4.71429ZM10.3571 0.857143V21.4286C10.3571 21.6559 10.2668 21.8739 10.1061 22.0347C9.94535 22.1954 9.72733 22.2857 9.5 22.2857C9.27267 22.2857 9.05465 22.1954 8.89391 22.0347C8.73316 21.8739 8.64286 21.6559 8.64286 21.4286V20.1429H3.07143C2.38944 20.1429 1.73539 19.8719 1.25315 19.3897C0.770918 18.9075 0.5 18.2534 0.5 17.5714V4.71429C0.5 4.0323 0.770918 3.37825 1.25315 2.89601C1.73539 2.41377 2.38944 2.14286 3.07143 2.14286H8.64286V0.857143C8.64286 0.629814 8.73316 0.411797 8.89391 0.251051C9.05465 0.0903058 9.27267 0 9.5 0C9.72733 0 9.94535 0.0903058 10.1061 0.251051C10.2668 0.411797 10.3571 0.629814 10.3571 0.857143ZM8.64286 18.4286V3.85714H3.07143C2.8441 3.85714 2.62608 3.94745 2.46534 4.10819C2.30459 4.26894 2.21429 4.48696 2.21429 4.71429V17.5714C2.21429 17.7988 2.30459 18.0168 2.46534 18.1775C2.62608 18.3383 2.8441 18.4286 3.07143 18.4286H8.64286Z" fill="white"/>
</svg>
