<svg width="30" height="30" viewBox="0 0 30 30" fill="none" xmlns="http://www.w3.org/2000/svg">
<path d="M9.37479 5.93778C9.25168 5.93778 9.12977 5.96203 9.01603 6.00914C8.90228 6.05626 8.79893 6.12531 8.71188 6.21237C8.62482 6.29942 8.55577 6.40277 8.50865 6.51651C8.46154 6.63026 8.43729 6.75216 8.43729 6.87528C8.43729 6.99839 8.46154 7.1203 8.50865 7.23404C8.55577 7.34779 8.62482 7.45114 8.71188 7.53819C8.79893 7.62525 8.90228 7.6943 9.01603 7.74142C9.12977 7.78853 9.25168 7.81278 9.37479 7.81278C9.62343 7.81278 9.86189 7.71401 10.0377 7.53819C10.2135 7.36238 10.3123 7.12392 10.3123 6.87528C10.3123 6.62664 10.2135 6.38818 10.0377 6.21237C9.86189 6.03655 9.62343 5.93778 9.37479 5.93778ZM6.56229 6.87528C6.56245 6.35969 6.70433 5.85407 6.97242 5.41367C7.24052 4.97327 7.62452 4.61504 8.08245 4.37813C8.54038 4.14122 9.05462 4.03474 9.56898 4.07034C10.0833 4.10594 10.578 4.28224 10.9989 4.57998C11.4199 4.87771 11.7509 5.28543 11.9557 5.75856C12.1606 6.2317 12.2315 6.75204 12.1606 7.26273C12.0897 7.77343 11.8798 8.25481 11.5539 8.65427C11.2279 9.05374 10.7984 9.35592 10.3123 9.52778V14.4103C10.4206 14.3303 10.5331 14.2561 10.6498 14.1878C11.836 13.4728 13.356 13.264 14.6473 13.0878L14.871 13.0565C16.3223 12.854 17.4985 12.654 18.3423 12.0853C18.9735 11.6578 19.5135 10.9478 19.6523 9.51528C19.0299 9.28613 18.5085 8.84442 18.1802 8.26814C17.8519 7.69187 17.7379 7.01812 17.8582 6.3659C17.9784 5.71368 18.3253 5.12494 18.8376 4.70368C19.3498 4.28242 19.9945 4.05574 20.6577 4.06368C21.3208 4.07162 21.9599 4.31366 22.4619 4.74706C22.9639 5.18046 23.2966 5.77732 23.4013 6.43224C23.5059 7.08716 23.3758 7.75798 23.0338 8.32623C22.6918 8.89448 22.16 9.3236 21.5323 9.53778C21.3748 11.509 20.6098 12.8153 19.3923 13.6378C18.126 14.494 16.4898 14.7253 15.1298 14.9128L15.0985 14.9178C13.636 15.1203 12.4648 15.2828 11.616 15.7928C11.2223 16.0303 10.9135 16.3378 10.6948 16.7703C10.4698 17.2128 10.3123 17.8403 10.3123 18.7503V20.4728C10.9382 20.6939 11.4657 21.1293 11.8016 21.7018C12.1375 22.2743 12.2603 22.9471 12.1481 23.6013C12.0359 24.2556 11.696 24.8491 11.1885 25.277C10.681 25.7048 10.0386 25.9395 9.37479 25.9395C8.711 25.9395 8.06858 25.7048 7.56109 25.277C7.0536 24.8491 6.71372 24.2556 6.60153 23.6013C6.48933 22.9471 6.61204 22.2743 6.94798 21.7018C7.28391 21.1293 7.81143 20.6939 8.43729 20.4728V9.52778C7.88881 9.33386 7.41395 8.97463 7.07815 8.49958C6.74234 8.02453 6.56212 7.45703 6.56229 6.87528ZM20.6248 5.93778C20.5017 5.93778 20.3798 5.96203 20.266 6.00914C20.1523 6.05626 20.0489 6.12531 19.9619 6.21237C19.8748 6.29942 19.8058 6.40277 19.7587 6.51651C19.7115 6.63026 19.6873 6.75216 19.6873 6.87528C19.6873 6.99839 19.7115 7.1203 19.7587 7.23404C19.8058 7.34779 19.8748 7.45114 19.9619 7.53819C20.0489 7.62525 20.1523 7.6943 20.266 7.74142C20.3798 7.78853 20.5017 7.81278 20.6248 7.81278C20.8734 7.81278 21.1119 7.71401 21.2877 7.53819C21.4635 7.36238 21.5623 7.12392 21.5623 6.87528C21.5623 6.62664 21.4635 6.38818 21.2877 6.21237C21.1119 6.03655 20.8734 5.93778 20.6248 5.93778ZM9.37479 22.1878C9.12615 22.1878 8.88769 22.2865 8.71188 22.4624C8.53606 22.6382 8.43729 22.8766 8.43729 23.1253C8.43729 23.3739 8.53606 23.6124 8.71188 23.7882C8.88769 23.964 9.12615 24.0628 9.37479 24.0628C9.62343 24.0628 9.86189 23.964 10.0377 23.7882C10.2135 23.6124 10.3123 23.3739 10.3123 23.1253C10.3123 22.8766 10.2135 22.6382 10.0377 22.4624C9.86189 22.2865 9.62343 22.1878 9.37479 22.1878Z" fill="black"/>
</svg>
