<svg width="30" height="30" viewBox="0 0 30 30" fill="none" xmlns="http://www.w3.org/2000/svg">
<path fill-rule="evenodd" clip-rule="evenodd" d="M2.5 8.75C2.5 6.3925 2.5 5.215 3.2325 4.4825C3.965 3.75 5.1425 3.75 7.5 3.75H22.5C24.8575 3.75 26.035 3.75 26.7675 4.4825C27.5 5.215 27.5 6.3925 27.5 8.75C27.5 11.1075 27.5 12.285 26.7675 13.0175C26.035 13.75 24.8575 13.75 22.5 13.75H7.5C5.1425 13.75 3.965 13.75 3.2325 13.0175C2.5 12.285 2.5 11.1075 2.5 8.75ZM7.5 7.8125C7.25136 7.8125 7.0129 7.91127 6.83709 8.08709C6.66127 8.2629 6.5625 8.50136 6.5625 8.75C6.5625 8.99864 6.66127 9.2371 6.83709 9.41291C7.0129 9.58873 7.25136 9.6875 7.5 9.6875H10C10.2486 9.6875 10.4871 9.58873 10.6629 9.41291C10.8387 9.2371 10.9375 8.99864 10.9375 8.75C10.9375 8.50136 10.8387 8.2629 10.6629 8.08709C10.4871 7.91127 10.2486 7.8125 10 7.8125H7.5ZM12.8125 8.75C12.8125 8.50136 12.9113 8.2629 13.0871 8.08709C13.2629 7.91127 13.5014 7.8125 13.75 7.8125H22.5C22.7486 7.8125 22.9871 7.91127 23.1629 8.08709C23.3387 8.2629 23.4375 8.50136 23.4375 8.75C23.4375 8.99864 23.3387 9.2371 23.1629 9.41291C22.9871 9.58873 22.7486 9.6875 22.5 9.6875H13.75C13.5014 9.6875 13.2629 9.58873 13.0871 9.41291C12.9113 9.2371 12.8125 8.99864 12.8125 8.75ZM2.5 21.25C2.5 18.8925 2.5 17.715 3.2325 16.9825C3.965 16.25 5.1425 16.25 7.5 16.25H22.5C24.8575 16.25 26.035 16.25 26.7675 16.9825C27.5 17.715 27.5 18.8925 27.5 21.25C27.5 23.6075 27.5 24.785 26.7675 25.5175C26.035 26.25 24.8575 26.25 22.5 26.25H7.5C5.1425 26.25 3.965 26.25 3.2325 25.5175C2.5 24.785 2.5 23.6075 2.5 21.25ZM7.5 20.3125C7.25136 20.3125 7.0129 20.4113 6.83709 20.5871C6.66127 20.7629 6.5625 21.0014 6.5625 21.25C6.5625 21.4986 6.66127 21.7371 6.83709 21.9129C7.0129 22.0887 7.25136 22.1875 7.5 22.1875H10C10.2486 22.1875 10.4871 22.0887 10.6629 21.9129C10.8387 21.7371 10.9375 21.4986 10.9375 21.25C10.9375 21.0014 10.8387 20.7629 10.6629 20.5871C10.4871 20.4113 10.2486 20.3125 10 20.3125H7.5ZM12.8125 21.25C12.8125 21.0014 12.9113 20.7629 13.0871 20.5871C13.2629 20.4113 13.5014 20.3125 13.75 20.3125H22.5C22.7486 20.3125 22.9871 20.4113 23.1629 20.5871C23.3387 20.7629 23.4375 21.0014 23.4375 21.25C23.4375 21.4986 23.3387 21.7371 23.1629 21.9129C22.9871 22.0887 22.7486 22.1875 22.5 22.1875H13.75C13.5014 22.1875 13.2629 22.0887 13.0871 21.9129C12.9113 21.7371 12.8125 21.4986 12.8125 21.25Z" fill="black"/>
</svg>
