<svg width="30" height="24" viewBox="0 0 30 24" fill="none" xmlns="http://www.w3.org/2000/svg">
<g clip-path="url(#clip0_1644_711)">
<path d="M12.0232 0.375C12.7619 0.375 13.4934 0.520495 14.1758 0.803178C14.8583 1.08586 15.4784 1.50019 16.0007 2.02252C16.523 2.54485 16.9374 3.16495 17.2201 3.84741C17.5027 4.52986 17.6482 5.26131 17.6482 6C17.6482 6.73869 17.5027 7.47014 17.2201 8.15259C16.9374 8.83505 16.523 9.45515 16.0007 9.97748C15.4784 10.4998 14.8583 10.9141 14.1758 11.1968C13.4934 11.4795 12.7619 11.625 12.0232 11.625C11.2846 11.625 10.5531 11.4795 9.87065 11.1968C9.18819 10.9141 8.5681 10.4998 8.04577 9.97748C7.52344 9.45515 7.1091 8.83505 6.82642 8.15259C6.54374 7.47014 6.39824 6.73869 6.39824 6C6.39824 5.26131 6.54374 4.52986 6.82642 3.84741C7.1091 3.16495 7.52344 2.54485 8.04577 2.02252C8.5681 1.50019 9.18819 1.08586 9.87065 0.803178C10.5531 0.520495 11.2846 0.375 12.0232 0.375ZM10.6264 14.25H13.4811C12.8764 15.5063 13.1154 16.9781 14.0201 17.9766C13.0732 19.0219 12.8576 20.5922 13.5795 21.8859L14.6342 23.7797C14.6764 23.8547 14.7232 23.9297 14.7701 24H3.66074C2.89199 24 2.26855 23.3766 2.26855 22.6078C2.26855 17.9906 6.00918 14.25 10.6264 14.25ZM20.2779 11.6063C20.2779 10.9828 20.7795 10.4813 21.4029 10.4813H23.6529C24.2764 10.4813 24.7779 10.9828 24.7779 11.6063V11.8922C24.7779 12.7781 25.9076 13.4297 26.6764 12.9891L26.9107 12.8531C27.4545 12.5391 28.1529 12.7312 28.4576 13.2797L29.5076 15.1641C29.7982 15.6891 29.6295 16.3453 29.1232 16.6641L28.9029 16.8C28.1436 17.2734 28.1436 18.6703 28.9029 19.1484L29.1186 19.2844C29.6248 19.6031 29.7982 20.2594 29.5076 20.7844L28.4529 22.6781C28.1482 23.2266 27.4498 23.4234 26.9061 23.1047L26.6764 22.9688C25.9076 22.5234 24.7779 23.1797 24.7779 24.0656V24.3516C24.7779 24.975 24.2764 25.4766 23.6529 25.4766H21.4029C20.7795 25.4766 20.2779 24.975 20.2779 24.3516V24.075C20.2779 23.1844 19.1436 22.5281 18.3701 22.9734L18.1451 23.1047C17.6014 23.4187 16.9076 23.2266 16.5982 22.6781L15.5389 20.7844C15.2482 20.2594 15.417 19.5984 15.9279 19.2797L16.1342 19.1531C16.8982 18.6797 16.8982 17.2734 16.1342 16.8L15.9232 16.6688C15.4123 16.35 15.2436 15.6891 15.5342 15.1641L16.5889 13.275C16.8936 12.7266 17.592 12.5344 18.1311 12.8484L18.3561 12.9797C19.1295 13.425 20.2639 12.7687 20.2639 11.8781V11.6016L20.2779 11.6063ZM24.9607 17.9906C24.9607 17.3442 24.7039 16.7242 24.2468 16.2671C23.7897 15.8099 23.1697 15.5531 22.5232 15.5531C21.8768 15.5531 21.2568 15.8099 20.7997 16.2671C20.3425 16.7242 20.0857 17.3442 20.0857 17.9906C20.0857 18.6371 20.3425 19.2571 20.7997 19.7142C21.2568 20.1713 21.8768 20.4281 22.5232 20.4281C23.1697 20.4281 23.7897 20.1713 24.2468 19.7142C24.7039 19.2571 24.9607 18.6371 24.9607 17.9906Z" fill="black"/>
</g>
<defs>
<clipPath id="clip0_1644_711">
<rect width="30" height="24" fill="white"/>
</clipPath>
</defs>
</svg>
