<svg width="32" height="32" viewBox="0 0 32 32" fill="none" xmlns="http://www.w3.org/2000/svg">
<path d="M16.0001 11.6665C14.8508 11.6665 13.7486 12.1231 12.936 12.9357C12.1233 13.7484 11.6667 14.8506 11.6667 15.9998C11.6667 17.1491 12.1233 18.2513 12.936 19.064C13.7486 19.8766 14.8508 20.3332 16.0001 20.3332C17.1494 20.3332 18.2516 19.8766 19.0642 19.064C19.8769 18.2513 20.3334 17.1491 20.3334 15.9998C20.3334 14.8506 19.8769 13.7484 19.0642 12.9357C18.2516 12.1231 17.1494 11.6665 16.0001 11.6665Z" fill="#231F20"/>
<path fill-rule="evenodd" clip-rule="evenodd" d="M9.02658 4.10919C13.6613 3.59576 18.3385 3.59576 22.9732 4.10919C25.5052 4.39186 27.5466 6.38519 27.8439 8.92653C28.3932 13.6261 28.3932 18.3736 27.8439 23.0732C27.5466 25.6145 25.5052 27.6079 22.9746 27.8919C18.3394 28.4054 13.6617 28.4054 9.02658 27.8919C6.49458 27.6079 4.45325 25.6145 4.15591 23.0745C3.60656 18.3745 3.60656 13.6265 4.15591 8.92653C4.45325 6.38519 6.49458 4.39186 9.02658 4.10919ZM22.6666 7.99986C22.313 7.99986 21.9738 8.14034 21.7238 8.39038C21.4737 8.64043 21.3332 8.97957 21.3332 9.33319C21.3332 9.68681 21.4737 10.026 21.7238 10.276C21.9738 10.526 22.313 10.6665 22.6666 10.6665C23.0202 10.6665 23.3593 10.526 23.6094 10.276C23.8594 10.026 23.9999 9.68681 23.9999 9.33319C23.9999 8.97957 23.8594 8.64043 23.6094 8.39038C23.3593 8.14034 23.0202 7.99986 22.6666 7.99986ZM9.66658 15.9999C9.66658 14.3202 10.3338 12.7092 11.5216 11.5215C12.7093 10.3338 14.3202 9.66653 15.9999 9.66653C17.6796 9.66653 19.2905 10.3338 20.4783 11.5215C21.666 12.7092 22.3332 14.3202 22.3332 15.9999C22.3332 17.6796 21.666 19.2905 20.4783 20.4782C19.2905 21.6659 17.6796 22.3332 15.9999 22.3332C14.3202 22.3332 12.7093 21.6659 11.5216 20.4782C10.3338 19.2905 9.66658 17.6796 9.66658 15.9999Z" fill="#231F20"/>
</svg>
