<svg width="174" height="36" viewBox="0 0 174 36" fill="none" xmlns="http://www.w3.org/2000/svg">
<g clip-path="url(#clip0_1154_400)">
<path d="M11.254 9.51058L9.80859 14.7019L18.0819 9.48102L12.671 29.1807L18.1663 29.1852L26.1596 0.0878906" fill="#3395FF"/>
<path d="M2.34931 20.9033L0.0733643 29.1851H11.3366L15.9454 12.3376L2.34931 20.9033ZM41.4736 13.612C41.1983 14.6105 40.6679 15.3439 39.8768 15.8123C39.0875 16.2797 37.9799 16.5144 36.55 16.5144H32.0073L33.6023 10.7114H38.145C39.573 10.7114 40.5541 10.9442 41.0863 11.4188C41.6186 11.8935 41.7471 12.6188 41.4736 13.6218M46.1769 13.4965C46.7551 11.4009 46.5165 9.78899 45.4593 8.66063C44.4039 7.54123 42.5519 6.97705 39.9089 6.97705H29.7708L23.668 29.195H28.5934L31.0529 20.2397H34.2833C35.0083 20.2397 35.5791 20.3562 35.9957 20.58C36.4133 20.8129 36.6583 21.2159 36.7336 21.7979L37.6128 29.195H42.8897L42.0343 22.2994C41.86 20.7591 41.1377 19.8547 39.8685 19.586C41.4865 19.1293 42.8419 18.3681 43.934 17.3114C45.0185 16.2624 45.7933 14.9477 46.1769 13.5054M58.1495 21.2427C57.7366 22.7472 57.1033 23.8845 56.2471 24.6815C55.3899 25.4785 54.3658 25.8726 53.1709 25.8726C51.954 25.8726 51.129 25.4875 50.6931 24.7084C50.2562 23.9293 50.2415 22.8009 50.6472 21.3233C51.0528 19.8457 51.6998 18.6905 52.59 17.8576C53.4802 17.0248 54.5209 16.6084 55.7157 16.6084C56.9088 16.6084 57.7256 17.0114 58.1385 17.8111C58.5607 18.6144 58.5699 19.7633 58.1569 21.2588L58.1495 21.2427ZM60.308 13.38L59.6913 15.6278C59.4252 14.8218 58.9085 14.1771 58.145 13.6935C57.3796 13.2188 56.4325 12.9771 55.3028 12.9771C53.917 12.9771 52.5863 13.3263 51.3107 14.0248C50.035 14.7233 48.9154 15.7084 47.961 16.98C47.0066 18.2517 46.3091 19.6935 45.8594 21.3144C45.4189 22.9442 45.3271 24.3681 45.5933 25.6039C45.8686 26.8487 46.4468 27.7979 47.3369 28.4606C48.2363 29.1323 49.3835 29.4636 50.7876 29.4636C51.9033 29.4691 53.0065 29.2337 54.018 28.7741C55.018 28.3339 55.9075 27.686 56.6243 26.8756L55.9819 29.2182H60.7449L65.0939 13.3881H60.3218L60.308 13.38ZM82.2094 13.38H68.3583L67.3901 16.9084H75.4495L64.7948 25.8905L63.8844 29.2039H78.1825L79.1507 25.6756H70.5149L81.333 16.5591M94.4014 21.2159C93.9728 22.7741 93.3368 23.9454 92.4971 24.7084C91.6574 25.4785 90.6405 25.8636 89.4466 25.8636C86.9504 25.8636 86.13 24.3144 86.9816 21.2159C87.4037 19.6756 88.0425 18.5176 88.896 17.7376C89.7494 16.955 90.7837 16.5645 91.9997 16.5645C93.1927 16.5645 93.9985 16.9523 94.4133 17.7332C94.8281 18.5123 94.8244 19.6738 94.4014 21.2141M97.1894 13.9756C96.0927 13.3093 94.6932 12.9762 92.9862 12.9762C91.2582 12.9762 89.6586 13.3075 88.1866 13.9702C86.7206 14.6287 85.4323 15.6118 84.4239 16.8412C83.3869 18.086 82.6408 19.5457 82.1828 21.2114C81.7331 22.8708 81.6781 24.3278 82.0268 25.5753C82.3755 26.82 83.1097 27.7782 84.211 28.4409C85.3214 29.109 86.7347 29.4412 88.4692 29.4412C90.1762 29.4412 91.7638 29.1063 93.223 28.44C94.6822 27.7702 95.9303 26.8191 96.9673 25.5654C98.0043 24.3171 98.7477 22.8609 99.2066 21.1953C99.6654 19.5296 99.7205 18.0753 99.3717 16.8251C99.023 15.5803 98.298 14.6221 97.2059 13.955M114.193 17.6087L115.414 13.3012C115.001 13.0953 114.459 12.9878 113.78 12.9878C112.688 12.9878 111.642 13.2511 110.632 13.7848C109.764 14.2379 109.026 14.8773 108.402 15.6779L109.035 13.3585L107.652 13.3639H104.257L99.8792 29.1878H104.709L106.981 20.9159C107.311 19.7132 107.906 18.7666 108.764 18.095C109.617 17.4206 110.682 17.083 111.967 17.083C112.756 17.083 113.49 17.2594 114.187 17.6114M127.632 21.292C127.219 22.7696 126.595 23.8979 125.742 24.677C124.888 25.4597 123.86 25.8502 122.667 25.8502C121.474 25.8502 120.657 25.4562 120.226 24.6681C119.786 23.8756 119.776 22.7338 120.189 21.2329C120.602 19.7329 121.236 18.5821 122.107 17.7851C122.979 16.9818 124.007 16.5806 125.2 16.5806C126.375 16.5806 127.164 16.9926 127.586 17.8254C128.008 18.6582 128.018 19.8135 127.612 21.2911M130.989 14.0015C130.094 13.303 128.952 12.9538 127.566 12.9538C126.352 12.9538 125.195 13.2224 124.097 13.7651C123 14.3069 122.11 15.0457 121.426 15.9806L121.443 15.8732L122.253 13.3568H117.536L116.334 17.7359L116.297 17.8881L111.342 35.9275H116.178L118.674 26.8469C118.922 27.6547 119.427 28.2887 120.198 28.7472C120.968 29.2039 121.92 29.4305 123.052 29.4305C124.456 29.4305 125.796 29.0991 127.067 28.4365C128.342 27.772 129.444 26.8156 130.38 25.5797C131.316 24.3439 132.011 22.9111 132.454 21.2902C132.903 19.6666 132.995 18.2185 132.738 16.9514C132.477 15.6824 131.898 14.7 131.004 14.0051M147.032 21.2275C146.619 22.723 145.986 23.8693 145.132 24.6573C144.279 25.4508 143.251 25.8457 142.058 25.8457C140.837 25.8457 140.011 25.4606 139.58 24.6815C139.139 23.9024 139.13 22.7741 139.534 21.2965C139.938 19.8188 140.582 18.6636 141.472 17.8308C142.362 16.9979 143.404 16.5824 144.599 16.5824C145.792 16.5824 146.6 16.9854 147.022 17.7824C147.444 18.5821 147.447 19.7311 147.035 21.2302L147.032 21.2275ZM149.188 13.3603L148.571 15.6081C148.305 14.7976 147.791 14.1529 147.029 13.6738C146.258 13.1956 145.313 12.9573 144.184 12.9573C142.798 12.9573 141.46 13.3066 140.183 14.0051C138.907 14.7036 137.788 15.6833 136.833 16.9514C135.879 18.2194 135.181 19.6648 134.732 21.2857C134.286 22.9129 134.199 24.3394 134.465 25.5806C134.734 26.8165 135.313 27.7711 136.209 28.4373C137.103 29.1 138.256 29.435 139.66 29.435C140.789 29.435 141.867 29.2057 142.89 28.7454C143.888 28.3032 144.775 27.6545 145.49 26.8442L144.848 29.1887H149.611L153.959 13.3648H149.196L149.188 13.3603ZM173.955 13.3657L173.958 13.3612H171.03C170.937 13.3612 170.854 13.3657 170.769 13.3675H169.25L168.47 14.4242L168.277 14.675L168.194 14.8003L162.023 23.1896L160.747 13.3657H155.692L158.253 28.2941L152.6 35.9329H157.638L159.005 34.0406C159.044 33.9851 159.079 33.9385 159.125 33.8794L160.721 31.6675L160.767 31.6048L167.919 21.7093L173.949 13.3809L173.958 13.3756H173.955V13.3657Z" fill="#072654"/>
</g>
<defs>
<clipPath id="clip0_1154_400">
<rect width="174" height="36" fill="white"/>
</clipPath>
</defs>
</svg>
