<svg width="32" height="33" viewBox="0 0 32 33" fill="none" xmlns="http://www.w3.org/2000/svg">
<path d="M7.28041 0C3.26625 0 0 3.2277 0 7.19327C0 11.16 3.26607 14.3879 7.28041 14.3879C11.2947 14.3879 14.5608 11.1602 14.5608 7.19327C14.5608 3.22634 11.2961 0 7.28041 0ZM7.28041 1.03157C10.731 1.03157 13.5166 3.78466 13.5166 7.19436C13.5166 10.6041 10.731 13.3572 7.28041 13.3572C3.82982 13.3572 1.04419 10.6041 1.04419 7.19436C1.04419 3.78466 3.82982 1.03157 7.28041 1.03157ZM7.44324 2.49653C7.30463 2.49653 7.17141 2.55103 7.07452 2.64808C6.97628 2.74379 6.92111 2.8754 6.92111 3.01232V3.50285C5.82569 3.54938 4.97114 4.49188 4.97114 5.60458C4.97114 6.74518 5.87009 7.70896 7.00585 7.70896H7.5522C8.09184 7.70896 8.54265 8.16226 8.54265 8.78307C8.54265 9.40254 8.09184 9.85717 7.5522 9.85717H5.91581L5.91715 9.85584C5.62917 9.85584 5.39637 10.0858 5.39502 10.3703C5.39502 10.5059 5.4502 10.6375 5.54843 10.7345C5.64667 10.8316 5.77855 10.8848 5.91716 10.8848H6.92108V11.3753C6.92108 11.5109 6.97625 11.6425 7.07449 11.7395C7.17273 11.8366 7.30461 11.8898 7.44321 11.8898C7.58182 11.8898 7.71505 11.8366 7.81193 11.7395C7.91017 11.6425 7.96535 11.5109 7.96535 11.3753V10.8422C8.89926 10.6428 9.58693 9.78139 9.58693 8.78303C9.58693 7.64243 8.68798 6.67865 7.55222 6.67865H7.00587C6.46624 6.67865 6.01542 6.22535 6.01542 5.60454C6.01542 4.98506 6.46624 4.53176 7.00587 4.53176H8.64226C8.78087 4.53176 8.91275 4.47726 9.01099 4.38022C9.10922 4.28317 9.1644 4.15156 9.1644 4.01465C9.16305 3.73149 8.9289 3.50152 8.64227 3.50152H7.96538V3.01231C7.96538 2.87539 7.91021 2.74378 7.81332 2.64807C7.71508 2.55103 7.58184 2.49653 7.44324 2.49653ZM15.3413 3.55338H15.34C15.2014 3.55338 15.0695 3.60656 14.9712 3.7036C14.873 3.80065 14.8178 3.93225 14.8178 4.06784C14.8178 4.20477 14.873 4.33637 14.9712 4.43341C15.0695 4.52912 15.2014 4.58363 15.34 4.58363H27.399C27.0558 5.04227 26.8513 5.61656 26.8513 6.23338V29.654C26.8513 30.9514 25.8393 31.9684 24.5797 31.9684C23.3201 31.9684 22.3095 30.9514 22.3095 29.654L22.3108 25.803C22.3108 25.791 22.3108 25.7804 22.3095 25.7684V25.7657C22.3095 25.7591 22.3082 25.7524 22.3082 25.7458C22.3068 25.7352 22.3041 25.7232 22.3028 25.7126C22.3001 25.6979 22.296 25.6833 22.2934 25.6687C22.2893 25.6541 22.2839 25.6394 22.2785 25.6261C22.2785 25.6235 22.2772 25.6208 22.2759 25.6182C22.2732 25.6102 22.2691 25.6009 22.2651 25.5929C22.2624 25.5863 22.2597 25.5796 22.2557 25.5743C22.2395 25.5397 22.218 25.5078 22.1938 25.4786C22.1897 25.4733 22.1843 25.468 22.1803 25.4626C22.1628 25.4427 22.144 25.4241 22.1238 25.4068C22.1184 25.4028 22.1117 25.3975 22.1063 25.3935C22.1036 25.3922 22.1009 25.3895 22.0996 25.3882C22.0834 25.3762 22.0659 25.3656 22.0484 25.355L22.0161 25.339C22.0107 25.3363 22.0054 25.3337 22 25.331C21.9892 25.3257 21.9784 25.3217 21.9663 25.3177C21.9663 25.3177 21.965 25.3177 21.9636 25.3164C21.9367 25.3071 21.9071 25.2991 21.8789 25.2951C21.8775 25.2938 21.8762 25.2938 21.8735 25.2938C21.86 25.2911 21.8466 25.2898 21.8331 25.2885H21.8304C21.817 25.2872 21.8022 25.2872 21.7874 25.2872H6.38974V15.7862C6.38974 15.6493 6.33456 15.5177 6.23633 15.4206C6.13943 15.3249 6.00621 15.2704 5.8676 15.2704C5.729 15.2704 5.59577 15.3249 5.49888 15.4206C5.40064 15.5177 5.34547 15.6493 5.34547 15.7862V25.2872H4.32002C4.28099 25.2872 4.24062 25.2925 4.20159 25.3018C4.19083 25.3044 4.18141 25.3071 4.17064 25.3098C4.09394 25.3337 4.02261 25.3736 3.96475 25.4281C3.95667 25.4347 3.9486 25.4427 3.94187 25.4507C3.88535 25.5092 3.84498 25.5783 3.8221 25.6554C3.81941 25.6647 3.81672 25.6727 3.81402 25.682C3.8046 25.7219 3.79922 25.7617 3.79788 25.8016V29.654C3.79788 31.4912 5.27683 33 7.11104 33H24.5798C26.414 33 27.8957 31.4912 27.8957 29.654V15.5615H31.4792C31.7659 15.5615 31.9987 15.3315 32 15.047V6.23454C32 4.77621 30.8629 3.55322 29.4256 3.55322L15.3413 3.55338ZM29.4271 4.58495C30.2655 4.58495 30.9585 5.29482 30.9585 6.2347V14.5326H27.897L27.8956 7.14403V6.23474C27.8956 5.29356 28.5873 4.58498 29.4257 4.58498L29.4271 4.58495ZM15.6968 9.87585L15.6955 9.87452C15.5569 9.87452 15.4237 9.92903 15.3254 10.0261C15.2272 10.1231 15.1734 10.2534 15.1734 10.3903C15.1734 10.5272 15.2285 10.6588 15.3254 10.7559C15.4237 10.8529 15.5569 10.9061 15.6955 10.9061H22.98C23.1187 10.9061 23.2505 10.8516 23.3488 10.7559C23.447 10.6588 23.5022 10.5272 23.5022 10.3903C23.5022 10.2547 23.447 10.1231 23.3488 10.0261C23.2505 9.92903 23.1186 9.87452 22.98 9.87452L15.6968 9.87585ZM11.7378 14.235C10.6397 14.235 9.7394 15.1256 9.7394 16.2104C9.7394 17.2952 10.6397 18.1832 11.7378 18.1832C12.8359 18.1832 13.7375 17.2938 13.7375 16.2104C13.7375 15.1256 12.8359 14.235 11.7378 14.235ZM11.7378 15.2665C12.2707 15.2665 12.6932 15.684 12.6932 16.2104C12.6932 16.7368 12.2707 17.1529 11.7378 17.1529C11.2049 17.1529 10.7837 16.7381 10.7837 16.2104C10.7837 15.6839 11.2036 15.2665 11.7378 15.2665ZM15.6968 15.6946L15.6955 15.6933C15.5569 15.6933 15.4237 15.7478 15.3254 15.8448C15.2285 15.9405 15.1734 16.0721 15.1734 16.209C15.1734 16.346 15.2285 16.4776 15.3254 16.5733C15.4237 16.6703 15.5569 16.7248 15.6955 16.7248H22.98C23.1187 16.7248 23.2505 16.6703 23.3488 16.5733C23.447 16.4762 23.5022 16.346 23.5022 16.209C23.5022 16.0721 23.447 15.9405 23.3488 15.8448C23.2505 15.7478 23.1186 15.6933 22.98 15.6933L15.6968 15.6946ZM11.7378 20.0523C10.6397 20.0523 9.7394 20.9417 9.7394 22.0251C9.7394 23.1099 10.6397 23.9979 11.7378 23.9979C12.8359 23.9979 13.7375 23.1086 13.7375 22.0251C13.7375 20.9404 12.8359 20.0523 11.7378 20.0523ZM11.7378 21.0839C12.2707 21.0839 12.6932 21.4987 12.6932 22.0264C12.6932 22.5529 12.2707 22.9689 11.7378 22.9689C11.2049 22.9689 10.7837 22.5541 10.7837 22.0264C10.7837 21.5 11.2036 21.0839 11.7378 21.0839ZM15.6968 21.5106L15.6955 21.5093C15.5569 21.5093 15.4237 21.5638 15.3254 21.6595C15.2285 21.7566 15.1734 21.8882 15.1734 22.0251C15.1734 22.162 15.2285 22.2936 15.3254 22.3893C15.4237 22.4864 15.5569 22.5409 15.6955 22.5409H22.98C23.1187 22.5409 23.2505 22.4864 23.3488 22.3893C23.447 22.2923 23.5022 22.162 23.5022 22.0251C23.5022 21.8882 23.447 21.7566 23.3488 21.6609C23.2505 21.5638 23.1186 21.5093 22.98 21.5093L15.6968 21.5106ZM4.8422 26.319H21.2668V29.6543C21.2668 30.549 21.618 31.3665 22.19 31.9688H7.11238C5.8528 31.9688 4.84217 30.9518 4.84217 29.6543L4.8422 26.319Z" fill="black"/>
</svg>
