<svg width="31" height="30" viewBox="0 0 31 30" fill="none" xmlns="http://www.w3.org/2000/svg">
<path d="M24.7279 4.29047e-05H5.3128C2.39574 -0.0115789 0.0182839 2.33933 7.93402e-06 5.25631V28.9348C-0.00165221 29.3648 0.257347 29.7533 0.655819 29.9193C1.05262 30.0837 1.51084 29.9924 1.81469 29.6869L8.40255 23.1041H24.7277C27.6448 23.1157 30.0222 20.7632 30.0405 17.8461V5.25653C30.0222 2.33947 27.6449 -0.0118578 24.7279 4.29047e-05ZM27.9155 17.851C27.8973 19.5943 26.4711 20.9955 24.7279 20.9823H7.96112C7.68054 20.9823 7.41157 21.0952 7.21236 21.2927L2.11208 26.393V5.25659C2.132 3.51332 3.55648 2.11376 5.29975 2.12536H24.728C26.4713 2.11374 27.8974 3.51332 27.9157 5.25659L27.9155 17.851Z" fill="black"/>
<path d="M9.70758 10.8253H16.933C17.519 10.8253 17.9955 10.3505 17.9955 9.76275C17.9955 9.17669 17.519 8.7002 16.933 8.7002H9.70758C9.12151 8.7002 8.64502 9.17669 8.64502 9.76275C8.64502 10.3505 9.12151 10.8253 9.70758 10.8253Z" fill="black"/>
<path d="M20.3332 12.2793H9.70758C9.12151 12.2793 8.64502 12.7541 8.64502 13.3419C8.64502 13.9279 9.12151 14.4044 9.70758 14.4044H20.3332C20.9192 14.4044 21.3957 13.9279 21.3957 13.3419C21.3957 12.7541 20.9192 12.2793 20.3332 12.2793Z" fill="black"/>
</svg>
