<svg width="24" height="24" viewBox="0 0 24 24" fill="none" xmlns="http://www.w3.org/2000/svg">
<path d="M8.88573 7.17004C9.06873 7.17504 9.27173 7.18504 9.46473 7.61304C9.59273 7.89804 9.80773 8.42304 9.98373 8.85104C10.1207 9.18404 10.2327 9.45804 10.2607 9.51404C10.3247 9.64204 10.3647 9.78904 10.2807 9.96204L10.2527 10.02C10.1958 10.1546 10.1182 10.2795 10.0227 10.39L9.87973 10.56C9.79473 10.664 9.70973 10.766 9.63773 10.838C9.50873 10.966 9.37573 11.104 9.52373 11.36C9.67173 11.616 10.1917 12.458 10.9587 13.137C11.5197 13.643 12.1634 14.0489 12.8617 14.337C12.9317 14.367 12.9884 14.3924 13.0317 14.413C13.2887 14.541 13.4417 14.521 13.5897 14.349C13.7387 14.176 14.2327 13.6 14.4067 13.344C14.5747 13.088 14.7467 13.128 14.9847 13.216C15.2227 13.305 16.4887 13.926 16.7457 14.053L16.8887 14.123C17.0677 14.208 17.1887 14.267 17.2407 14.353C17.3047 14.462 17.3047 14.973 17.0927 15.575C16.8747 16.175 15.8257 16.751 15.3507 16.795L15.2157 16.811C14.7797 16.863 14.2277 16.931 12.2597 16.156C9.83373 15.202 8.23273 12.836 7.90973 12.357L7.85673 12.281L7.85073 12.273C7.70373 12.076 6.80273 10.871 6.80273 9.62704C6.80273 8.43704 7.38973 7.81704 7.65673 7.53504L7.70373 7.48504C7.79016 7.38741 7.89575 7.30862 8.01394 7.25357C8.13213 7.19851 8.26039 7.16838 8.39073 7.16504C8.56373 7.16504 8.73773 7.16504 8.88573 7.17004Z" fill="black"/>
<path fill-rule="evenodd" clip-rule="evenodd" d="M2.18398 21.331C2.16514 21.3988 2.16451 21.4704 2.18217 21.5385C2.19982 21.6066 2.23512 21.6689 2.28452 21.719C2.33392 21.7691 2.39566 21.8053 2.46351 21.8239C2.53137 21.8425 2.60293 21.8429 2.67098 21.825L7.27798 20.621C8.73967 21.4128 10.3757 21.8276 12.038 21.828H12.042C17.528 21.828 22 17.382 22 11.916C22.0034 10.6126 21.7475 9.32149 21.2472 8.11785C20.7469 6.91422 20.0123 5.8221 19.086 4.90505C18.1613 3.98046 17.0629 3.24782 15.854 2.74927C14.6451 2.25072 13.3496 1.9961 12.042 2.00005C6.55598 2.00005 2.08398 6.44604 2.08398 11.911C2.08398 13.65 2.54198 15.358 3.41398 16.865L2.18398 21.331ZM4.86098 17.263C4.91386 17.0711 4.928 16.8706 4.90259 16.6732C4.87718 16.4757 4.81273 16.2853 4.71298 16.113C3.97413 14.8358 3.58473 13.3866 3.58398 11.911C3.58398 7.28104 7.37698 3.50005 12.042 3.50005C14.312 3.50005 16.43 4.37705 18.028 5.96805C18.8142 6.74575 19.4377 7.67223 19.8622 8.69344C20.2866 9.71465 20.5034 10.8102 20.5 11.916C20.5 16.546 16.707 20.328 12.042 20.328H12.037C10.6247 20.3273 9.23481 19.9747 7.99298 19.302C7.65827 19.1208 7.26719 19.0737 6.89898 19.17L4.13698 19.891L4.86098 17.263Z" fill="black"/>
</svg>
