<svg xmlns="http://www.w3.org/2000/svg" xmlns:xlink="http://www.w3.org/1999/xlink" width="500" zoomAndPan="magnify" viewBox="0 0 375 374.999991" height="500" preserveAspectRatio="xMidYMid meet" version="1.0"><rect x="-37.5" width="450" fill="#ffffff" y="-37.499999" height="449.999989" fill-opacity="1"/><path fill="#01af3b" d="M 332.90625 183.945312 C 332.90625 263.121094 268.722656 327.304688 189.546875 327.304688 C 164.320312 327.304688 140.613281 320.789062 120.019531 309.347656 L 42.070312 334.394531 L 66.855469 258.226562 C 53.65625 236.535156 46.1875 211.191406 46.1875 183.945312 C 46.1875 104.769531 110.371094 40.585938 189.546875 40.585938 C 268.722656 40.585938 332.90625 104.769531 332.90625 183.945312 Z M 332.90625 183.945312 " fill-opacity="1" fill-rule="nonzero"/><path fill="#ffffff" d="M 309.777344 183.609375 C 309.777344 249.664062 256.230469 303.207031 190.179688 303.207031 C 165.613281 303.207031 142.777344 295.800781 123.785156 283.101562 L 78.167969 298.183594 L 91.640625 251.40625 C 78.355469 232.136719 70.578125 208.78125 70.578125 183.609375 C 70.578125 117.554688 124.125 64.007812 190.179688 64.007812 C 256.230469 64.007812 309.777344 117.554688 309.777344 183.609375 Z M 309.777344 183.609375 " fill-opacity="1" fill-rule="nonzero"/><path fill="#01af3b" d="M 153.363281 124.285156 L 167.222656 153.621094 C 168.375 156.054688 168.089844 158.925781 166.480469 161.085938 L 156.765625 174.144531 C 155.492188 175.855469 155.378906 178.164062 156.480469 179.992188 C 161.554688 188.414062 177.632812 211.671875 205.160156 220.867188 C 206.9375 221.460938 208.894531 220.898438 210.070312 219.445312 L 221.585938 205.203125 C 223.71875 202.5625 227.394531 201.746094 230.445312 203.234375 L 257.96875 216.660156 C 260.46875 217.882812 262.058594 220.421875 262.058594 223.207031 L 262.058594 227.507812 C 262.058594 230.894531 261.152344 234.226562 259.394531 237.125 C 254.214844 245.667969 240.648438 260.015625 210.441406 250.308594 C 207.972656 249.515625 205.496094 248.878906 203.089844 247.914062 C 189.289062 242.371094 146.871094 226.613281 121.53125 169.1875 C 120.6875 167.269531 120.058594 165.257812 119.667969 163.199219 C 118.207031 155.480469 116.882812 137.59375 131.78125 124.132812 C 134.648438 121.542969 138.371094 120.113281 142.234375 120.113281 L 146.773438 120.113281 C 149.59375 120.113281 152.15625 121.738281 153.363281 124.285156 Z M 153.363281 124.285156 " fill-opacity="1" fill-rule="nonzero"/></svg>