<svg xmlns="http://www.w3.org/2000/svg" xmlns:xlink="http://www.w3.org/1999/xlink" width="500" zoomAndPan="magnify" viewBox="0 0 375 374.999991" height="500" preserveAspectRatio="xMidYMid meet" version="1.0"><defs><clipPath id="9f5cb50c77"><path d="M 0 26.015625 L 375 26.015625 L 375 288 L 0 288 Z M 0 26.015625 " clip-rule="nonzero"/></clipPath><clipPath id="3da6bb4529"><path d="M 115 289 L 176 289 L 176 349.265625 L 115 349.265625 Z M 115 289 " clip-rule="nonzero"/></clipPath><clipPath id="3f4cc4616b"><path d="M 235 289 L 295 289 L 295 349.265625 L 235 349.265625 Z M 235 289 " clip-rule="nonzero"/></clipPath></defs><g clip-path="url(#9f5cb50c77)"><path fill="#3879bd" d="M 370.042969 87.804688 L 143.921875 92.734375 L 362.671875 97.5 L 311.5 218.21875 L 144.402344 215.566406 C 143.046875 213.996094 141.339844 212.710938 139.34375 211.851562 L 75.828125 35.4375 C 74.050781 30.539062 69.390625 26.972656 63.867188 26.886719 L 63.445312 26.878906 L 14.390625 26.101562 C 14.261719 26.097656 14.074219 26.097656 13.945312 26.101562 C 6.203125 26.222656 0.03125 32.605469 0.152344 40.351562 C 0.273438 48.097656 6.652344 54.28125 14.390625 54.15625 L 54.515625 53.519531 L 120.550781 220.15625 C 120.488281 220.332031 120.417969 220.496094 120.363281 220.679688 L 104.484375 273.089844 L 104.113281 274.308594 C 103.773438 275.445312 103.625 276.65625 103.695312 277.90625 C 104.019531 283.695312 108.96875 288.125 114.753906 287.796875 L 308.722656 276.851562 L 130.964844 266.820312 L 144.488281 235.429688 L 316.230469 232.703125 L 316.464844 232.699219 C 319.238281 232.652344 321.839844 230.953125 322.902344 228.207031 L 374.605469 94.589844 L 374.683594 94.390625 C 374.902344 93.824219 375.011719 93.203125 374.996094 92.554688 C 374.941406 89.871094 372.722656 87.746094 370.042969 87.804688 " fill-opacity="1" fill-rule="nonzero"/></g><g clip-path="url(#3da6bb4529)"><path fill="#3879bd" d="M 145.519531 289.6875 C 129.105469 289.6875 115.796875 303.007812 115.796875 319.4375 C 115.796875 335.863281 129.105469 349.183594 145.519531 349.183594 C 161.933594 349.183594 175.238281 335.863281 175.238281 319.4375 C 175.238281 303.007812 161.933594 289.6875 145.519531 289.6875 " fill-opacity="1" fill-rule="nonzero"/></g><g clip-path="url(#3f4cc4616b)"><path fill="#3879bd" d="M 264.984375 289.6875 C 248.570312 289.6875 235.261719 303.007812 235.261719 319.4375 C 235.261719 335.863281 248.570312 349.183594 264.984375 349.183594 C 281.398438 349.183594 294.707031 335.863281 294.707031 319.4375 C 294.707031 303.007812 281.398438 289.6875 264.984375 289.6875 " fill-opacity="1" fill-rule="nonzero"/></g></svg>